<mxfile host="Electron" agent="Mozilla/5.0 (Windows NT 10.0; Win64; x64) AppleWebKit/537.36 (KHTML, like Gecko) draw.io/26.2.2 Chrome/134.0.6998.178 Electron/35.1.2 Safari/537.36" version="26.2.2" pages="2">
  <diagram name="Страница — 1" id="8gyf67fc1AzrZcN7zsJN">
    <mxGraphModel dx="680" dy="800" grid="1" gridSize="10" guides="1" tooltips="1" connect="1" arrows="1" fold="1" page="0" pageScale="1" pageWidth="900" pageHeight="1600" math="0" shadow="0">
      <root>
        <mxCell id="0" />
        <mxCell id="1" parent="0" />
        <mxCell id="FtFzJYWkGXsDboc2dxAP-11" value="RAM" style="rounded=0;whiteSpace=wrap;html=1;" vertex="1" parent="1">
          <mxGeometry x="840" y="-10" width="370" height="250" as="geometry" />
        </mxCell>
        <mxCell id="FtFzJYWkGXsDboc2dxAP-21" value="" style="rounded=1;whiteSpace=wrap;html=1;fontFamily=Lucida Console;fillColor=#dae8fc;strokeColor=#6c8ebf;" vertex="1" parent="1">
          <mxGeometry x="874" y="10" width="46" height="80" as="geometry" />
        </mxCell>
        <mxCell id="FtFzJYWkGXsDboc2dxAP-9" value="RAM" style="rounded=0;whiteSpace=wrap;html=1;" vertex="1" parent="1">
          <mxGeometry x="30" y="-10" width="370" height="250" as="geometry" />
        </mxCell>
        <mxCell id="FtFzJYWkGXsDboc2dxAP-1" value="" style="rounded=1;whiteSpace=wrap;html=1;fontFamily=Lucida Console;fillColor=#dae8fc;strokeColor=#6c8ebf;" vertex="1" parent="1">
          <mxGeometry x="60" y="10" width="90" height="90" as="geometry" />
        </mxCell>
        <mxCell id="FtFzJYWkGXsDboc2dxAP-2" value="4" style="text;html=1;align=center;verticalAlign=middle;resizable=0;points=[];autosize=1;strokeColor=none;fillColor=none;fontFamily=Lucida Console;fontSize=28;" vertex="1" parent="1">
          <mxGeometry x="85" y="30" width="40" height="50" as="geometry" />
        </mxCell>
        <mxCell id="FtFzJYWkGXsDboc2dxAP-3" value="x" style="text;html=1;align=center;verticalAlign=middle;resizable=0;points=[];autosize=1;strokeColor=none;fillColor=none;fontFamily=Lucida Console;fontStyle=1" vertex="1" parent="1">
          <mxGeometry x="60" y="10" width="30" height="30" as="geometry" />
        </mxCell>
        <mxCell id="FtFzJYWkGXsDboc2dxAP-4" value="" style="rounded=1;whiteSpace=wrap;html=1;fontFamily=Lucida Console;fillColor=#d5e8d4;strokeColor=#82b366;" vertex="1" parent="1">
          <mxGeometry x="270" y="10" width="90" height="90" as="geometry" />
        </mxCell>
        <mxCell id="FtFzJYWkGXsDboc2dxAP-5" value="4" style="text;html=1;align=center;verticalAlign=middle;resizable=0;points=[];autosize=1;strokeColor=none;fillColor=none;fontFamily=Lucida Console;fontSize=28;" vertex="1" parent="1">
          <mxGeometry x="295" y="30" width="40" height="50" as="geometry" />
        </mxCell>
        <mxCell id="FtFzJYWkGXsDboc2dxAP-6" value="y" style="text;html=1;align=center;verticalAlign=middle;resizable=0;points=[];autosize=1;strokeColor=none;fillColor=none;fontFamily=Lucida Console;fontStyle=1" vertex="1" parent="1">
          <mxGeometry x="270" y="10" width="30" height="30" as="geometry" />
        </mxCell>
        <mxCell id="FtFzJYWkGXsDboc2dxAP-7" value="" style="verticalLabelPosition=bottom;html=1;verticalAlign=top;align=center;strokeColor=none;fillColor=#00BEF2;shape=mxgraph.azure.automation;pointerEvents=1;" vertex="1" parent="1">
          <mxGeometry x="110" y="65" width="33.33" height="30" as="geometry" />
        </mxCell>
        <mxCell id="FtFzJYWkGXsDboc2dxAP-8" value="" style="verticalLabelPosition=bottom;html=1;verticalAlign=top;align=center;strokeColor=none;fillColor=#00BEF2;shape=mxgraph.azure.automation;pointerEvents=1;" vertex="1" parent="1">
          <mxGeometry x="316.67" y="65" width="33.33" height="30" as="geometry" />
        </mxCell>
        <mxCell id="FtFzJYWkGXsDboc2dxAP-10" value="x = 4&lt;div&gt;y = 4&lt;/div&gt;" style="text;html=1;align=center;verticalAlign=middle;resizable=0;points=[];autosize=1;strokeColor=none;fillColor=none;" vertex="1" parent="1">
          <mxGeometry x="40" y="-170" width="50" height="40" as="geometry" />
        </mxCell>
        <mxCell id="FtFzJYWkGXsDboc2dxAP-12" value="" style="rounded=1;whiteSpace=wrap;html=1;fontFamily=Lucida Console;fillColor=#f5f5f5;strokeColor=#666666;fontColor=#333333;" vertex="1" parent="1">
          <mxGeometry x="980" y="140" width="90" height="90" as="geometry" />
        </mxCell>
        <mxCell id="FtFzJYWkGXsDboc2dxAP-14" value="x" style="text;html=1;align=center;verticalAlign=middle;resizable=0;points=[];autosize=1;strokeColor=none;fillColor=none;fontFamily=Lucida Console;fontStyle=1" vertex="1" parent="1">
          <mxGeometry x="870" y="10" width="30" height="30" as="geometry" />
        </mxCell>
        <mxCell id="FtFzJYWkGXsDboc2dxAP-15" value="" style="rounded=1;whiteSpace=wrap;html=1;fontFamily=Lucida Console;fillColor=#d5e8d4;strokeColor=#82b366;" vertex="1" parent="1">
          <mxGeometry x="1080" y="10" width="50" height="80" as="geometry" />
        </mxCell>
        <mxCell id="FtFzJYWkGXsDboc2dxAP-17" value="y" style="text;html=1;align=center;verticalAlign=middle;resizable=0;points=[];autosize=1;strokeColor=none;fillColor=none;fontFamily=Lucida Console;fontStyle=1" vertex="1" parent="1">
          <mxGeometry x="1080" y="10" width="30" height="30" as="geometry" />
        </mxCell>
        <mxCell id="FtFzJYWkGXsDboc2dxAP-18" value="" style="verticalLabelPosition=bottom;html=1;verticalAlign=top;align=center;strokeColor=none;fillColor=#00BEF2;shape=mxgraph.azure.automation;pointerEvents=1;" vertex="1" parent="1">
          <mxGeometry x="1030" y="196" width="33.33" height="30" as="geometry" />
        </mxCell>
        <mxCell id="FtFzJYWkGXsDboc2dxAP-20" value="x = 4&lt;div&gt;y = 4&lt;/div&gt;" style="text;html=1;align=center;verticalAlign=middle;resizable=0;points=[];autosize=1;strokeColor=none;fillColor=none;" vertex="1" parent="1">
          <mxGeometry x="850" y="-170" width="50" height="40" as="geometry" />
        </mxCell>
        <mxCell id="FtFzJYWkGXsDboc2dxAP-26" style="edgeStyle=orthogonalEdgeStyle;rounded=0;orthogonalLoop=1;jettySize=auto;html=1;entryX=0;entryY=0.5;entryDx=0;entryDy=0;" edge="1" parent="1" source="FtFzJYWkGXsDboc2dxAP-23" target="FtFzJYWkGXsDboc2dxAP-12">
          <mxGeometry relative="1" as="geometry">
            <Array as="points">
              <mxPoint x="897" y="185" />
            </Array>
          </mxGeometry>
        </mxCell>
        <mxCell id="FtFzJYWkGXsDboc2dxAP-23" value="" style="shape=image;editableCssRules=.*;verticalLabelPosition=bottom;labelBackgroundColor=default;verticalAlign=top;aspect=fixed;imageAspect=0;image=data:image/svg+xml,PHN2ZyB4bWxucz0iaHR0cDovL3d3dy53My5vcmcvMjAwMC9zdmciIHZpZXdCb3g9Ii0wLjUgLTAuNSAyNy45NDcgMjgiIGhlaWdodD0iMjgiIHdpZHRoPSIyNy45NDciPiYjeGE7CSAgPHN0eWxlIHR5cGU9InRleHQvY3NzIj4uc3QwIHsgc3RvcC1jb2xvcjogcmdiKDkxLCAxMTUsIDEzOSk7IH0gLnN0MSB7IHN0b3AtY29sb3I6IHJnYigzNCwgNTMsIDcyKTsgfSA8L3N0eWxlPiYjeGE7CTxkZWZzPiYjeGE7CQk8bGluZWFyR3JhZGllbnQgZ3JhZGllbnRVbml0cz0idXNlclNwYWNlT25Vc2UiIHkyPSIyNS4yNjkiIHgyPSIyMy40NSIgeTE9IjMuNDc0IiB4MT0iMi4wMzQiIGlkPSJBIj4mI3hhOwkJCTxzdG9wIGNsYXNzPSJzdDAiLz4mI3hhOwkJCTxzdG9wIGNsYXNzPSJzdDEiIG9mZnNldD0iMSIvPiYjeGE7CQk8L2xpbmVhckdyYWRpZW50PiYjeGE7CTwvZGVmcz4mI3hhOwk8cGF0aCBmaWxsPSJ1cmwoI0EpIiBkPSJNMTIuMTg5IDIwLjk5MmMuMTQzLS4xNDQuMzEzLS4yNTcuNTAyLS4zMzJzLjM5LS4xMTEuNTkyLS4xMDVjLjQzOCAwIC43NjcuMjAxLjk4NS42MDIuMjkuMjkyLjQzOC42MzkuNDM4IDEuMDRzLS4xNDcuNzQ3LS40MzcgMS4wNGwtMi4wODEgMi4wMjNjLS43MTMuNzE4LTEuNTcgMS4yNzctMi41MTUgMS42NGE2Ljg0IDYuODQgMCAwIDEtMi43OS42MDJjLS45NjItLjAwMy0xLjkxMi0uMjA4LTIuNzktLjYwMi0uODc1LS4zNjQtMS42NzYtLjkxLTIuNDA2LTEuNjQtLjcwOS0uNjk5LTEuMjY3LTEuNTM3LTEuNjQtMi40NmE3LjQ1IDcuNDUgMCAwIDEtLjU0OC0yLjc5YzAtLjk0OC4xODItMS44NzguNTQ4LTIuNzg5cy45MS0xLjczMyAxLjY0LTIuNDYxbDQuMTU2LTQuMTAyYy43My0uNzMgMS41NS0xLjI3NyAyLjQ2LTEuNjQxYTcuMjUgNy4yNSAwIDAgMSAyLjg0NC0uNmMuOTQ4IDAgMS44NzguMiAyLjc5LjYuOTEyLjM2NiAxLjcxNS45MTIgMi40MDYgMS42NDFhMS40MiAxLjQyIDAgMCAxIC40MzggMS4wNGMwIC40MDEtLjE0NS43NDctLjQzNyAxLjAzOGExLjQyIDEuNDIgMCAwIDEtMS4wMzkuNDM4IDEuNDIgMS40MiAwIDAgMS0xLjAzOC0uNDM3Yy0uODQtLjkxLTEuODYtMS4zNjUtMy4wNjItMS4zNjVzLTIuMjQ0LjQ1NS0zLjExOCAxLjM2NWwtNC4xNTMgNC4xMDJjLS45MS44NC0xLjM2NSAxLjg2LTEuMzY1IDMuMDYzcy40NTUgMi4yNjEgMS4zNjUgMy4xNzNjLjg0Ljg3NSAxLjg2IDEuMzEzIDMuMDYzIDEuMzEzczIuMjQ0LS40MzcgMy4xMTktMS4zMTJsMi4wNzQtMi4wODF6bTEzLjAxNy0xOS4yNWMuNzI4LjY5MyAxLjI3NiAxLjQ5NSAxLjY0IDIuNDA2YTYuODQgNi44NCAwIDAgMSAuNjAyIDIuNzljMCAuOTQ5LS4yMDEgMS44NzgtLjYwMiAyLjc5LS4zNjQuODc1LS45MSAxLjY3Ny0xLjY0IDIuNDA2bC00LjEwMiA0LjFjLS43NjcuNzY3LTEuNjA1IDEuMzMtMi41MTcgMS42OTgtLjkwNC4zNjMtMS44NjguNTQ4LTIuODQyLjU0NmE3LjQ1IDcuNDUgMCAwIDEtMi43OS0uNTQ4Yy0uOTAxLS4zODMtMS43MDQtLjk2Mi0yLjM1Mi0xLjY5NmExLjM2IDEuMzYgMCAwIDEtLjQzNy0uOTgzYzAtLjQwMi4xNDUtLjc0Ny40MzgtMS4wNGExLjM2IDEuMzYgMCAwIDEgLjk4NS0uNDM3IDEuNDIgMS40MiAwIDAgMSAxLjAzOC40MzggMy44NSAzLjg1IDAgMCAwIDEuNDIzLjk4NSA0LjM5IDQuMzkgMCAwIDAgMy4zMzYgMGMuNTQ4LS4yMTkgMS4wNC0uNTQ4IDEuNDc3LS45ODVsNC4xNTYtNC4xNTZjLjg3NS0uODM4IDEuMzEzLTEuODU5IDEuMzEzLTMuMDYzcy0uNDM3LTIuMjU5LTEuMzEyLTMuMTcxYy0uODQtLjg3NS0xLjg2LTEuMzEyLTMuMDYyLTEuMzEycy0yLjI2MS40MzgtMy4xNzMgMS4zMTNsLTIuMDc1IDIuMDc3YTEuNDIgMS40MiAwIDAgMS0xLjAzOS40MzggMS40MiAxLjQyIDAgMCAxLTEuMDQtLjQzNyAxLjQyIDEuNDIgMCAwIDEtLjQzNy0xLjA0IDEuNDIgMS40MiAwIDAgMSAuNDM4LTEuMDM4bDIuMDc5LTIuMDgxYy43MjgtLjcyOCAxLjU0OS0xLjI3NiAyLjQ2LTEuNjRhNy4yNSA3LjI1IDAgMCAxIDIuODQyLS42Yy45NDggMCAxLjg3OC4yMDEgMi43OS42MDIuOTEuMzY0IDEuNzEzLjkxIDIuNDA2IDEuNjR6Ii8+JiN4YTs8L3N2Zz4=;" vertex="1" parent="1">
          <mxGeometry x="883" y="52" width="28" height="28" as="geometry" />
        </mxCell>
        <mxCell id="FtFzJYWkGXsDboc2dxAP-25" style="edgeStyle=orthogonalEdgeStyle;rounded=0;orthogonalLoop=1;jettySize=auto;html=1;" edge="1" parent="1" source="FtFzJYWkGXsDboc2dxAP-24" target="FtFzJYWkGXsDboc2dxAP-12">
          <mxGeometry relative="1" as="geometry">
            <Array as="points">
              <mxPoint x="1104" y="185" />
            </Array>
          </mxGeometry>
        </mxCell>
        <mxCell id="FtFzJYWkGXsDboc2dxAP-24" value="" style="shape=image;editableCssRules=.*;verticalLabelPosition=bottom;labelBackgroundColor=default;verticalAlign=top;aspect=fixed;imageAspect=0;image=data:image/svg+xml,PHN2ZyB4bWxucz0iaHR0cDovL3d3dy53My5vcmcvMjAwMC9zdmciIHZpZXdCb3g9Ii0wLjUgLTAuNSAyNy45NDcgMjgiIGhlaWdodD0iMjgiIHdpZHRoPSIyNy45NDciPiYjeGE7CSAgPHN0eWxlIHR5cGU9InRleHQvY3NzIj4uc3QwIHsgc3RvcC1jb2xvcjogcmdiKDkxLCAxMTUsIDEzOSk7IH0gLnN0MSB7IHN0b3AtY29sb3I6IHJnYigzNCwgNTMsIDcyKTsgfSA8L3N0eWxlPiYjeGE7CTxkZWZzPiYjeGE7CQk8bGluZWFyR3JhZGllbnQgZ3JhZGllbnRVbml0cz0idXNlclNwYWNlT25Vc2UiIHkyPSIyNS4yNjkiIHgyPSIyMy40NSIgeTE9IjMuNDc0IiB4MT0iMi4wMzQiIGlkPSJBIj4mI3hhOwkJCTxzdG9wIGNsYXNzPSJzdDAiLz4mI3hhOwkJCTxzdG9wIGNsYXNzPSJzdDEiIG9mZnNldD0iMSIvPiYjeGE7CQk8L2xpbmVhckdyYWRpZW50PiYjeGE7CTwvZGVmcz4mI3hhOwk8cGF0aCBmaWxsPSJ1cmwoI0EpIiBkPSJNMTIuMTg5IDIwLjk5MmMuMTQzLS4xNDQuMzEzLS4yNTcuNTAyLS4zMzJzLjM5LS4xMTEuNTkyLS4xMDVjLjQzOCAwIC43NjcuMjAxLjk4NS42MDIuMjkuMjkyLjQzOC42MzkuNDM4IDEuMDRzLS4xNDcuNzQ3LS40MzcgMS4wNGwtMi4wODEgMi4wMjNjLS43MTMuNzE4LTEuNTcgMS4yNzctMi41MTUgMS42NGE2Ljg0IDYuODQgMCAwIDEtMi43OS42MDJjLS45NjItLjAwMy0xLjkxMi0uMjA4LTIuNzktLjYwMi0uODc1LS4zNjQtMS42NzYtLjkxLTIuNDA2LTEuNjQtLjcwOS0uNjk5LTEuMjY3LTEuNTM3LTEuNjQtMi40NmE3LjQ1IDcuNDUgMCAwIDEtLjU0OC0yLjc5YzAtLjk0OC4xODItMS44NzguNTQ4LTIuNzg5cy45MS0xLjczMyAxLjY0LTIuNDYxbDQuMTU2LTQuMTAyYy43My0uNzMgMS41NS0xLjI3NyAyLjQ2LTEuNjQxYTcuMjUgNy4yNSAwIDAgMSAyLjg0NC0uNmMuOTQ4IDAgMS44NzguMiAyLjc5LjYuOTEyLjM2NiAxLjcxNS45MTIgMi40MDYgMS42NDFhMS40MiAxLjQyIDAgMCAxIC40MzggMS4wNGMwIC40MDEtLjE0NS43NDctLjQzNyAxLjAzOGExLjQyIDEuNDIgMCAwIDEtMS4wMzkuNDM4IDEuNDIgMS40MiAwIDAgMS0xLjAzOC0uNDM3Yy0uODQtLjkxLTEuODYtMS4zNjUtMy4wNjItMS4zNjVzLTIuMjQ0LjQ1NS0zLjExOCAxLjM2NWwtNC4xNTMgNC4xMDJjLS45MS44NC0xLjM2NSAxLjg2LTEuMzY1IDMuMDYzcy40NTUgMi4yNjEgMS4zNjUgMy4xNzNjLjg0Ljg3NSAxLjg2IDEuMzEzIDMuMDYzIDEuMzEzczIuMjQ0LS40MzcgMy4xMTktMS4zMTJsMi4wNzQtMi4wODF6bTEzLjAxNy0xOS4yNWMuNzI4LjY5MyAxLjI3NiAxLjQ5NSAxLjY0IDIuNDA2YTYuODQgNi44NCAwIDAgMSAuNjAyIDIuNzljMCAuOTQ5LS4yMDEgMS44NzgtLjYwMiAyLjc5LS4zNjQuODc1LS45MSAxLjY3Ny0xLjY0IDIuNDA2bC00LjEwMiA0LjFjLS43NjcuNzY3LTEuNjA1IDEuMzMtMi41MTcgMS42OTgtLjkwNC4zNjMtMS44NjguNTQ4LTIuODQyLjU0NmE3LjQ1IDcuNDUgMCAwIDEtMi43OS0uNTQ4Yy0uOTAxLS4zODMtMS43MDQtLjk2Mi0yLjM1Mi0xLjY5NmExLjM2IDEuMzYgMCAwIDEtLjQzNy0uOTgzYzAtLjQwMi4xNDUtLjc0Ny40MzgtMS4wNGExLjM2IDEuMzYgMCAwIDEgLjk4NS0uNDM3IDEuNDIgMS40MiAwIDAgMSAxLjAzOC40MzggMy44NSAzLjg1IDAgMCAwIDEuNDIzLjk4NSA0LjM5IDQuMzkgMCAwIDAgMy4zMzYgMGMuNTQ4LS4yMTkgMS4wNC0uNTQ4IDEuNDc3LS45ODVsNC4xNTYtNC4xNTZjLjg3NS0uODM4IDEuMzEzLTEuODU5IDEuMzEzLTMuMDYzcy0uNDM3LTIuMjU5LTEuMzEyLTMuMTcxYy0uODQtLjg3NS0xLjg2LTEuMzEyLTMuMDYyLTEuMzEycy0yLjI2MS40MzgtMy4xNzMgMS4zMTNsLTIuMDc1IDIuMDc3YTEuNDIgMS40MiAwIDAgMS0xLjAzOS40MzggMS40MiAxLjQyIDAgMCAxLTEuMDQtLjQzNyAxLjQyIDEuNDIgMCAwIDEtLjQzNy0xLjA0IDEuNDIgMS40MiAwIDAgMSAuNDM4LTEuMDM4bDIuMDc5LTIuMDgxYy43MjgtLjcyOCAxLjU0OS0xLjI3NiAyLjQ2LTEuNjRhNy4yNSA3LjI1IDAgMCAxIDIuODQyLS42Yy45NDggMCAxLjg3OC4yMDEgMi43OS42MDIuOTEuMzY0IDEuNzEzLjkxIDIuNDA2IDEuNjR6Ii8+JiN4YTs8L3N2Zz4=;" vertex="1" parent="1">
          <mxGeometry x="1091" y="52" width="28" height="28" as="geometry" />
        </mxCell>
        <mxCell id="FtFzJYWkGXsDboc2dxAP-28" value="" style="rounded=1;whiteSpace=wrap;html=1;fontFamily=Lucida Console;fillColor=#dae8fc;strokeColor=#6c8ebf;" vertex="1" parent="1">
          <mxGeometry x="1153.67" y="10" width="46" height="80" as="geometry" />
        </mxCell>
        <mxCell id="FtFzJYWkGXsDboc2dxAP-38" style="edgeStyle=orthogonalEdgeStyle;rounded=0;orthogonalLoop=1;jettySize=auto;html=1;exitX=0.5;exitY=1;exitDx=0;exitDy=0;" edge="1" parent="1" source="FtFzJYWkGXsDboc2dxAP-29" target="FtFzJYWkGXsDboc2dxAP-33">
          <mxGeometry relative="1" as="geometry" />
        </mxCell>
        <mxCell id="FtFzJYWkGXsDboc2dxAP-29" value="" style="shape=image;editableCssRules=.*;verticalLabelPosition=bottom;labelBackgroundColor=default;verticalAlign=top;aspect=fixed;imageAspect=0;image=data:image/svg+xml,PHN2ZyB4bWxucz0iaHR0cDovL3d3dy53My5vcmcvMjAwMC9zdmciIHZpZXdCb3g9Ii0wLjUgLTAuNSAyNy45NDcgMjgiIGhlaWdodD0iMjgiIHdpZHRoPSIyNy45NDciPiYjeGE7CSAgPHN0eWxlIHR5cGU9InRleHQvY3NzIj4uc3QwIHsgc3RvcC1jb2xvcjogcmdiKDkxLCAxMTUsIDEzOSk7IH0gLnN0MSB7IHN0b3AtY29sb3I6IHJnYigzNCwgNTMsIDcyKTsgfSA8L3N0eWxlPiYjeGE7CTxkZWZzPiYjeGE7CQk8bGluZWFyR3JhZGllbnQgZ3JhZGllbnRVbml0cz0idXNlclNwYWNlT25Vc2UiIHkyPSIyNS4yNjkiIHgyPSIyMy40NSIgeTE9IjMuNDc0IiB4MT0iMi4wMzQiIGlkPSJBIj4mI3hhOwkJCTxzdG9wIGNsYXNzPSJzdDAiLz4mI3hhOwkJCTxzdG9wIGNsYXNzPSJzdDEiIG9mZnNldD0iMSIvPiYjeGE7CQk8L2xpbmVhckdyYWRpZW50PiYjeGE7CTwvZGVmcz4mI3hhOwk8cGF0aCBmaWxsPSJ1cmwoI0EpIiBkPSJNMTIuMTg5IDIwLjk5MmMuMTQzLS4xNDQuMzEzLS4yNTcuNTAyLS4zMzJzLjM5LS4xMTEuNTkyLS4xMDVjLjQzOCAwIC43NjcuMjAxLjk4NS42MDIuMjkuMjkyLjQzOC42MzkuNDM4IDEuMDRzLS4xNDcuNzQ3LS40MzcgMS4wNGwtMi4wODEgMi4wMjNjLS43MTMuNzE4LTEuNTcgMS4yNzctMi41MTUgMS42NGE2Ljg0IDYuODQgMCAwIDEtMi43OS42MDJjLS45NjItLjAwMy0xLjkxMi0uMjA4LTIuNzktLjYwMi0uODc1LS4zNjQtMS42NzYtLjkxLTIuNDA2LTEuNjQtLjcwOS0uNjk5LTEuMjY3LTEuNTM3LTEuNjQtMi40NmE3LjQ1IDcuNDUgMCAwIDEtLjU0OC0yLjc5YzAtLjk0OC4xODItMS44NzguNTQ4LTIuNzg5cy45MS0xLjczMyAxLjY0LTIuNDYxbDQuMTU2LTQuMTAyYy43My0uNzMgMS41NS0xLjI3NyAyLjQ2LTEuNjQxYTcuMjUgNy4yNSAwIDAgMSAyLjg0NC0uNmMuOTQ4IDAgMS44NzguMiAyLjc5LjYuOTEyLjM2NiAxLjcxNS45MTIgMi40MDYgMS42NDFhMS40MiAxLjQyIDAgMCAxIC40MzggMS4wNGMwIC40MDEtLjE0NS43NDctLjQzNyAxLjAzOGExLjQyIDEuNDIgMCAwIDEtMS4wMzkuNDM4IDEuNDIgMS40MiAwIDAgMS0xLjAzOC0uNDM3Yy0uODQtLjkxLTEuODYtMS4zNjUtMy4wNjItMS4zNjVzLTIuMjQ0LjQ1NS0zLjExOCAxLjM2NWwtNC4xNTMgNC4xMDJjLS45MS44NC0xLjM2NSAxLjg2LTEuMzY1IDMuMDYzcy40NTUgMi4yNjEgMS4zNjUgMy4xNzNjLjg0Ljg3NSAxLjg2IDEuMzEzIDMuMDYzIDEuMzEzczIuMjQ0LS40MzcgMy4xMTktMS4zMTJsMi4wNzQtMi4wODF6bTEzLjAxNy0xOS4yNWMuNzI4LjY5MyAxLjI3NiAxLjQ5NSAxLjY0IDIuNDA2YTYuODQgNi44NCAwIDAgMSAuNjAyIDIuNzljMCAuOTQ5LS4yMDEgMS44NzgtLjYwMiAyLjc5LS4zNjQuODc1LS45MSAxLjY3Ny0xLjY0IDIuNDA2bC00LjEwMiA0LjFjLS43NjcuNzY3LTEuNjA1IDEuMzMtMi41MTcgMS42OTgtLjkwNC4zNjMtMS44NjguNTQ4LTIuODQyLjU0NmE3LjQ1IDcuNDUgMCAwIDEtMi43OS0uNTQ4Yy0uOTAxLS4zODMtMS43MDQtLjk2Mi0yLjM1Mi0xLjY5NmExLjM2IDEuMzYgMCAwIDEtLjQzNy0uOTgzYzAtLjQwMi4xNDUtLjc0Ny40MzgtMS4wNGExLjM2IDEuMzYgMCAwIDEgLjk4NS0uNDM3IDEuNDIgMS40MiAwIDAgMSAxLjAzOC40MzggMy44NSAzLjg1IDAgMCAwIDEuNDIzLjk4NSA0LjM5IDQuMzkgMCAwIDAgMy4zMzYgMGMuNTQ4LS4yMTkgMS4wNC0uNTQ4IDEuNDc3LS45ODVsNC4xNTYtNC4xNTZjLjg3NS0uODM4IDEuMzEzLTEuODU5IDEuMzEzLTMuMDYzcy0uNDM3LTIuMjU5LTEuMzEyLTMuMTcxYy0uODQtLjg3NS0xLjg2LTEuMzEyLTMuMDYyLTEuMzEycy0yLjI2MS40MzgtMy4xNzMgMS4zMTNsLTIuMDc1IDIuMDc3YTEuNDIgMS40MiAwIDAgMS0xLjAzOS40MzggMS40MiAxLjQyIDAgMCAxLTEuMDQtLjQzNyAxLjQyIDEuNDIgMCAwIDEtLjQzNy0xLjA0IDEuNDIgMS40MiAwIDAgMSAuNDM4LTEuMDM4bDIuMDc5LTIuMDgxYy43MjgtLjcyOCAxLjU0OS0xLjI3NiAyLjQ2LTEuNjRhNy4yNSA3LjI1IDAgMCAxIDIuODQyLS42Yy45NDggMCAxLjg3OC4yMDEgMi43OS42MDIuOTEuMzY0IDEuNzEzLjkxIDIuNDA2IDEuNjR6Ii8+JiN4YTs8L3N2Zz4=;" vertex="1" parent="1">
          <mxGeometry x="1162.67" y="52" width="28" height="28" as="geometry" />
        </mxCell>
        <mxCell id="FtFzJYWkGXsDboc2dxAP-30" value="z" style="text;html=1;align=center;verticalAlign=middle;resizable=0;points=[];autosize=1;strokeColor=none;fillColor=none;fontFamily=Lucida Console;fontStyle=1" vertex="1" parent="1">
          <mxGeometry x="1153.67" y="10" width="30" height="30" as="geometry" />
        </mxCell>
        <mxCell id="FtFzJYWkGXsDboc2dxAP-31" value="4" style="text;html=1;align=center;verticalAlign=middle;resizable=0;points=[];autosize=1;strokeColor=none;fillColor=none;fontFamily=Lucida Console;fontSize=28;" vertex="1" parent="1">
          <mxGeometry x="1135" y="160" width="40" height="50" as="geometry" />
        </mxCell>
        <mxCell id="FtFzJYWkGXsDboc2dxAP-32" value="" style="verticalLabelPosition=bottom;html=1;verticalAlign=top;align=center;strokeColor=none;fillColor=#00BEF2;shape=mxgraph.azure.automation;pointerEvents=1;" vertex="1" parent="1">
          <mxGeometry x="1160" y="196" width="33.33" height="30" as="geometry" />
        </mxCell>
        <mxCell id="FtFzJYWkGXsDboc2dxAP-33" value="" style="rounded=1;whiteSpace=wrap;html=1;fontFamily=Lucida Console;fillColor=#f5f5f5;strokeColor=#666666;fontColor=#333333;" vertex="1" parent="1">
          <mxGeometry x="1110" y="140" width="90" height="90" as="geometry" />
        </mxCell>
        <mxCell id="FtFzJYWkGXsDboc2dxAP-34" value="5" style="text;html=1;align=center;verticalAlign=middle;resizable=0;points=[];autosize=1;strokeColor=none;fillColor=none;fontFamily=Lucida Console;fontSize=28;" vertex="1" parent="1">
          <mxGeometry x="1135" y="160" width="40" height="50" as="geometry" />
        </mxCell>
        <mxCell id="FtFzJYWkGXsDboc2dxAP-37" value="" style="verticalLabelPosition=bottom;html=1;verticalAlign=top;align=center;strokeColor=none;fillColor=#00BEF2;shape=mxgraph.azure.automation;pointerEvents=1;" vertex="1" parent="1">
          <mxGeometry x="1160" y="196" width="33.33" height="30" as="geometry" />
        </mxCell>
        <mxCell id="FtFzJYWkGXsDboc2dxAP-39" value="4" style="text;html=1;align=center;verticalAlign=middle;resizable=0;points=[];autosize=1;strokeColor=none;fillColor=none;fontFamily=Lucida Console;fontSize=28;" vertex="1" parent="1">
          <mxGeometry x="1005" y="160" width="40" height="50" as="geometry" />
        </mxCell>
        <mxCell id="FtFzJYWkGXsDboc2dxAP-40" value="123123123" style="text;html=1;align=center;verticalAlign=middle;resizable=0;points=[];autosize=1;strokeColor=none;fillColor=none;" vertex="1" parent="1">
          <mxGeometry x="986" y="135" width="80" height="30" as="geometry" />
        </mxCell>
        <mxCell id="FtFzJYWkGXsDboc2dxAP-41" value="84984984" style="text;html=1;align=center;verticalAlign=middle;resizable=0;points=[];autosize=1;strokeColor=none;fillColor=none;" vertex="1" parent="1">
          <mxGeometry x="1113.33" y="135" width="80" height="30" as="geometry" />
        </mxCell>
      </root>
    </mxGraphModel>
  </diagram>
  <diagram id="__GRZjY258BgO_qehG4r" name="Страница — 2">
    <mxGraphModel dx="3656" dy="2482" grid="1" gridSize="10" guides="1" tooltips="1" connect="1" arrows="1" fold="1" page="0" pageScale="1" pageWidth="900" pageHeight="1600" math="0" shadow="0">
      <root>
        <mxCell id="0" />
        <mxCell id="1" parent="0" />
        <mxCell id="64lL_U8enU3L0a2776Dr-68" value="" style="rounded=1;whiteSpace=wrap;html=1;fillColor=none;strokeColor=#82b366;arcSize=6;strokeWidth=2;" parent="1" vertex="1">
          <mxGeometry x="-480" y="-600" width="820" height="300" as="geometry" />
        </mxCell>
        <mxCell id="64lL_U8enU3L0a2776Dr-11" style="edgeStyle=orthogonalEdgeStyle;rounded=1;orthogonalLoop=1;jettySize=auto;html=1;fontFamily=Lucida Console;curved=0;" parent="1" source="64lL_U8enU3L0a2776Dr-9" target="64lL_U8enU3L0a2776Dr-10" edge="1">
          <mxGeometry relative="1" as="geometry" />
        </mxCell>
        <mxCell id="64lL_U8enU3L0a2776Dr-9" value="../PycharmProjects" style="image;html=1;image=img/lib/clip_art/general/Empty_Folder_128x128.png;fontFamily=Lucida Console;" parent="1" vertex="1">
          <mxGeometry x="-460" y="-720" width="80" height="80" as="geometry" />
        </mxCell>
        <mxCell id="64lL_U8enU3L0a2776Dr-16" style="edgeStyle=orthogonalEdgeStyle;rounded=1;orthogonalLoop=1;jettySize=auto;html=1;fontFamily=Lucida Console;curved=0;" parent="1" source="64lL_U8enU3L0a2776Dr-10" target="64lL_U8enU3L0a2776Dr-12" edge="1">
          <mxGeometry relative="1" as="geometry">
            <mxPoint x="-10" y="-550" as="sourcePoint" />
          </mxGeometry>
        </mxCell>
        <mxCell id="64lL_U8enU3L0a2776Dr-67" style="edgeStyle=orthogonalEdgeStyle;rounded=1;orthogonalLoop=1;jettySize=auto;html=1;curved=0;" parent="1" source="64lL_U8enU3L0a2776Dr-10" target="64lL_U8enU3L0a2776Dr-63" edge="1">
          <mxGeometry relative="1" as="geometry" />
        </mxCell>
        <mxCell id="64lL_U8enU3L0a2776Dr-10" value="my_app" style="image;html=1;image=img/lib/clip_art/general/Empty_Folder_128x128.png;fontFamily=Lucida Console;" parent="1" vertex="1">
          <mxGeometry x="-340" y="-580" width="80" height="80" as="geometry" />
        </mxCell>
        <mxCell id="64lL_U8enU3L0a2776Dr-14" value="" style="group;fontFamily=Lucida Console;" parent="1" vertex="1" connectable="0">
          <mxGeometry x="190" y="-477" width="61.6" height="77" as="geometry" />
        </mxCell>
        <mxCell id="64lL_U8enU3L0a2776Dr-12" value="main.py" style="shape=note;whiteSpace=wrap;html=1;backgroundOutline=1;darkOpacity=0.05;labelPosition=center;verticalLabelPosition=bottom;align=center;verticalAlign=top;size=19;fontFamily=Lucida Console;" parent="64lL_U8enU3L0a2776Dr-14" vertex="1">
          <mxGeometry width="61.6" height="77" as="geometry" />
        </mxCell>
        <mxCell id="64lL_U8enU3L0a2776Dr-13" value="" style="shape=image;verticalLabelPosition=bottom;verticalAlign=top;imageAspect=0;aspect=fixed;image=data:image/svg+xml,PHN2ZyB4bWxucz0iaHR0cDovL3d3dy53My5vcmcvMjAwMC9zdmciIHZpZXdCb3g9IjAgMCAxMjggMTI4Ij48bGluZWFyR3JhZGllbnQgaWQ9InB5dGhvbi1vcmlnaW5hbC1hIiBncmFkaWVudFVuaXRzPSJ1c2VyU3BhY2VPblVzZSIgeDE9IjcwLjI1MiIgeTE9IjEyMzcuNDc2IiB4Mj0iMTcwLjY1OSIgeTI9IjExNTEuMDg5IiBncmFkaWVudFRyYW5zZm9ybT0ibWF0cml4KC41NjMgMCAwIC0uNTY4IC0yOS4yMTUgNzA3LjgxNykiPjxzdG9wIG9mZnNldD0iMCIgc3RvcC1jb2xvcj0iIzVBOUZENCIvPjxzdG9wIG9mZnNldD0iMSIgc3RvcC1jb2xvcj0iIzMwNjk5OCIvPjwvbGluZWFyR3JhZGllbnQ+PGxpbmVhckdyYWRpZW50IGlkPSJweXRob24tb3JpZ2luYWwtYiIgZ3JhZGllbnRVbml0cz0idXNlclNwYWNlT25Vc2UiIHgxPSIyMDkuNDc0IiB5MT0iMTA5OC44MTEiIHgyPSIxNzMuNjIiIHkyPSIxMTQ5LjUzNyIgZ3JhZGllbnRUcmFuc2Zvcm09Im1hdHJpeCguNTYzIDAgMCAtLjU2OCAtMjkuMjE1IDcwNy44MTcpIj48c3RvcCBvZmZzZXQ9IjAiIHN0b3AtY29sb3I9IiNGRkQ0M0IiLz48c3RvcCBvZmZzZXQ9IjEiIHN0b3AtY29sb3I9IiNGRkU4NzMiLz48L2xpbmVhckdyYWRpZW50PjxwYXRoIGZpbGw9InVybCgjcHl0aG9uLW9yaWdpbmFsLWEpIiBkPSJNNjMuMzkxIDEuOTg4Yy00LjIyMi4wMi04LjI1Mi4zNzktMTEuOCAxLjAwNy0xMC40NSAxLjg0Ni0xMi4zNDYgNS43MS0xMi4zNDYgMTIuODM3djkuNDExaDI0LjY5M3YzLjEzN0gyOS45NzdjLTcuMTc2IDAtMTMuNDYgNC4zMTMtMTUuNDI2IDEyLjUyMS0yLjI2OCA5LjQwNS0yLjM2OCAxNS4yNzUgMCAyNS4wOTYgMS43NTUgNy4zMTEgNS45NDcgMTIuNTE5IDEzLjEyNCAxMi41MTloOC40OTFWNjcuMjM0YzAtOC4xNTEgNy4wNTEtMTUuMzQgMTUuNDI2LTE1LjM0aDI0LjY2NWM2Ljg2NiAwIDEyLjM0Ni01LjY1NCAxMi4zNDYtMTIuNTQ4VjE1LjgzM2MwLTYuNjkzLTUuNjQ2LTExLjcyLTEyLjM0Ni0xMi44MzctNC4yNDQtLjcwNi04LjY0NS0xLjAyNy0xMi44NjYtMS4wMDh6TTUwLjAzNyA5LjU1N2MyLjU1IDAgNC42MzQgMi4xMTcgNC42MzQgNC43MjEgMCAyLjU5My0yLjA4MyA0LjY5LTQuNjM0IDQuNjktMi41NiAwLTQuNjMzLTIuMDk3LTQuNjMzLTQuNjktLjAwMS0yLjYwNCAyLjA3My00LjcyMSA0LjYzMy00LjcyMXoiIHRyYW5zZm9ybT0idHJhbnNsYXRlKDAgMTAuMjYpIi8+PHBhdGggZmlsbD0idXJsKCNweXRob24tb3JpZ2luYWwtYikiIGQ9Ik05MS42ODIgMjguMzh2MTAuOTY2YzAgOC41LTcuMjA4IDE1LjY1NS0xNS40MjYgMTUuNjU1SDUxLjU5MWMtNi43NTYgMC0xMi4zNDYgNS43ODMtMTIuMzQ2IDEyLjU0OXYyMy41MTVjMCA2LjY5MSA1LjgxOCAxMC42MjggMTIuMzQ2IDEyLjU0NyA3LjgxNiAyLjI5NyAxNS4zMTIgMi43MTMgMjQuNjY1IDAgNi4yMTYtMS44MDEgMTIuMzQ2LTUuNDIzIDEyLjM0Ni0xMi41NDd2LTkuNDEySDYzLjkzOHYtMy4xMzhoMzcuMDEyYzcuMTc2IDAgOS44NTItNS4wMDUgMTIuMzQ4LTEyLjUxOSAyLjU3OC03LjczNSAyLjQ2Ny0xNS4xNzQgMC0yNS4wOTYtMS43NzQtNy4xNDUtNS4xNjEtMTIuNTIxLTEyLjM0OC0xMi41MjFoLTkuMjY4ek03Ny44MDkgODcuOTI3YzIuNTYxIDAgNC42MzQgMi4wOTcgNC42MzQgNC42OTIgMCAyLjYwMi0yLjA3NCA0LjcxOS00LjYzNCA0LjcxOS0yLjU1IDAtNC42MzMtMi4xMTctNC42MzMtNC43MTkgMC0yLjU5NSAyLjA4My00LjY5MiA0LjYzMy00LjY5MnoiIHRyYW5zZm9ybT0idHJhbnNsYXRlKDAgMTAuMjYpIi8+PHJhZGlhbEdyYWRpZW50IGlkPSJweXRob24tb3JpZ2luYWwtYyIgY3g9IjE4MjUuNjc4IiBjeT0iNDQ0LjQ1IiByPSIyNi43NDMiIGdyYWRpZW50VHJhbnNmb3JtPSJtYXRyaXgoMCAtLjI0IC0xLjA1NSAwIDUzMi45NzkgNTU3LjU3NikiIGdyYWRpZW50VW5pdHM9InVzZXJTcGFjZU9uVXNlIj48c3RvcCBvZmZzZXQ9IjAiIHN0b3AtY29sb3I9IiNCOEI4QjgiIHN0b3Atb3BhY2l0eT0iLjQ5OCIvPjxzdG9wIG9mZnNldD0iMSIgc3RvcC1jb2xvcj0iIzdGN0Y3RiIgc3RvcC1vcGFjaXR5PSIwIi8+PC9yYWRpYWxHcmFkaWVudD48cGF0aCBvcGFjaXR5PSIuNDQ0IiBmaWxsPSJ1cmwoI3B5dGhvbi1vcmlnaW5hbC1jKSIgZD0iTTk3LjMwOSAxMTkuNTk3YzAgMy41NDMtMTQuODE2IDYuNDE2LTMzLjA5MSA2LjQxNi0xOC4yNzYgMC0zMy4wOTItMi44NzMtMzMuMDkyLTYuNDE2IDAtMy41NDQgMTQuODE1LTYuNDE3IDMzLjA5Mi02LjQxNyAxOC4yNzUgMCAzMy4wOTEgMi44NzIgMzMuMDkxIDYuNDE3eiIvPjwvc3ZnPg==;fontFamily=Lucida Console;" parent="64lL_U8enU3L0a2776Dr-14" vertex="1">
          <mxGeometry x="16.17" y="29.26" width="30.74" height="30.74" as="geometry" />
        </mxCell>
        <mxCell id="64lL_U8enU3L0a2776Dr-19" value="Запуск приложения" style="edgeStyle=orthogonalEdgeStyle;rounded=1;orthogonalLoop=1;jettySize=auto;html=1;fontFamily=Lucida Console;curved=0;flowAnimation=1;fillColor=#0050ef;strokeColor=#001DBC;" parent="1" source="64lL_U8enU3L0a2776Dr-18" target="64lL_U8enU3L0a2776Dr-12" edge="1">
          <mxGeometry x="-0.5731" relative="1" as="geometry">
            <Array as="points">
              <mxPoint x="450" y="-430" />
            </Array>
            <mxPoint as="offset" />
          </mxGeometry>
        </mxCell>
        <mxCell id="64lL_U8enU3L0a2776Dr-18" value="Console" style="image;aspect=fixed;html=1;points=[];align=center;fontSize=12;image=img/lib/azure2/general/Dev_Console.svg;fontFamily=Lucida Console;" parent="1" vertex="1">
          <mxGeometry x="401.25" y="-600" width="97.5" height="78" as="geometry" />
        </mxCell>
        <mxCell id="64lL_U8enU3L0a2776Dr-20" value="" style="html=1;verticalLabelPosition=bottom;align=center;labelBackgroundColor=#ffffff;verticalAlign=top;strokeWidth=2;strokeColor=#82b366;shadow=0;dashed=0;shape=mxgraph.ios7.icons.user;fillColor=#d5e8d4;fontFamily=Lucida Console;" parent="1" vertex="1">
          <mxGeometry x="678" y="-740" width="86" height="86" as="geometry" />
        </mxCell>
        <mxCell id="64lL_U8enU3L0a2776Dr-76" style="edgeStyle=orthogonalEdgeStyle;rounded=1;orthogonalLoop=1;jettySize=auto;html=1;entryX=0;entryY=0.5;entryDx=0;entryDy=0;curved=0;flowAnimation=1;fillColor=#0050ef;strokeColor=#001DBC;" parent="1" source="64lL_U8enU3L0a2776Dr-23" target="64lL_U8enU3L0a2776Dr-73" edge="1">
          <mxGeometry relative="1" as="geometry">
            <Array as="points">
              <mxPoint x="540" y="-625" />
              <mxPoint x="540" y="-303" />
            </Array>
          </mxGeometry>
        </mxCell>
        <mxCell id="64lL_U8enU3L0a2776Dr-23" value="python main.py" style="text;html=1;align=center;verticalAlign=middle;resizable=0;points=[];autosize=1;strokeColor=#666666;fillColor=#f5f5f5;fontColor=#333333;fontFamily=Lucida Console;" parent="1" vertex="1">
          <mxGeometry x="390" y="-640" width="120" height="30" as="geometry" />
        </mxCell>
        <mxCell id="64lL_U8enU3L0a2776Dr-38" style="edgeStyle=orthogonalEdgeStyle;rounded=1;orthogonalLoop=1;jettySize=auto;html=1;fontFamily=Lucida Console;curved=0;" parent="1" source="64lL_U8enU3L0a2776Dr-39" target="64lL_U8enU3L0a2776Dr-41" edge="1">
          <mxGeometry relative="1" as="geometry" />
        </mxCell>
        <mxCell id="64lL_U8enU3L0a2776Dr-39" value="my_app 2" style="image;html=1;image=img/lib/clip_art/general/Empty_Folder_128x128.png;fontFamily=Lucida Console;" parent="1" vertex="1">
          <mxGeometry x="-350" y="-250" width="80" height="80" as="geometry" />
        </mxCell>
        <mxCell id="64lL_U8enU3L0a2776Dr-40" value="" style="group;fontFamily=Lucida Console;" parent="1" vertex="1" connectable="0">
          <mxGeometry x="-260" y="-155" width="61.6" height="77" as="geometry" />
        </mxCell>
        <mxCell id="64lL_U8enU3L0a2776Dr-41" value="main.py" style="shape=note;whiteSpace=wrap;html=1;backgroundOutline=1;darkOpacity=0.05;labelPosition=center;verticalLabelPosition=bottom;align=center;verticalAlign=top;size=19;fontFamily=Lucida Console;" parent="64lL_U8enU3L0a2776Dr-40" vertex="1">
          <mxGeometry width="61.6" height="77" as="geometry" />
        </mxCell>
        <mxCell id="64lL_U8enU3L0a2776Dr-42" value="" style="shape=image;verticalLabelPosition=bottom;verticalAlign=top;imageAspect=0;aspect=fixed;image=data:image/svg+xml,PHN2ZyB4bWxucz0iaHR0cDovL3d3dy53My5vcmcvMjAwMC9zdmciIHZpZXdCb3g9IjAgMCAxMjggMTI4Ij48bGluZWFyR3JhZGllbnQgaWQ9InB5dGhvbi1vcmlnaW5hbC1hIiBncmFkaWVudFVuaXRzPSJ1c2VyU3BhY2VPblVzZSIgeDE9IjcwLjI1MiIgeTE9IjEyMzcuNDc2IiB4Mj0iMTcwLjY1OSIgeTI9IjExNTEuMDg5IiBncmFkaWVudFRyYW5zZm9ybT0ibWF0cml4KC41NjMgMCAwIC0uNTY4IC0yOS4yMTUgNzA3LjgxNykiPjxzdG9wIG9mZnNldD0iMCIgc3RvcC1jb2xvcj0iIzVBOUZENCIvPjxzdG9wIG9mZnNldD0iMSIgc3RvcC1jb2xvcj0iIzMwNjk5OCIvPjwvbGluZWFyR3JhZGllbnQ+PGxpbmVhckdyYWRpZW50IGlkPSJweXRob24tb3JpZ2luYWwtYiIgZ3JhZGllbnRVbml0cz0idXNlclNwYWNlT25Vc2UiIHgxPSIyMDkuNDc0IiB5MT0iMTA5OC44MTEiIHgyPSIxNzMuNjIiIHkyPSIxMTQ5LjUzNyIgZ3JhZGllbnRUcmFuc2Zvcm09Im1hdHJpeCguNTYzIDAgMCAtLjU2OCAtMjkuMjE1IDcwNy44MTcpIj48c3RvcCBvZmZzZXQ9IjAiIHN0b3AtY29sb3I9IiNGRkQ0M0IiLz48c3RvcCBvZmZzZXQ9IjEiIHN0b3AtY29sb3I9IiNGRkU4NzMiLz48L2xpbmVhckdyYWRpZW50PjxwYXRoIGZpbGw9InVybCgjcHl0aG9uLW9yaWdpbmFsLWEpIiBkPSJNNjMuMzkxIDEuOTg4Yy00LjIyMi4wMi04LjI1Mi4zNzktMTEuOCAxLjAwNy0xMC40NSAxLjg0Ni0xMi4zNDYgNS43MS0xMi4zNDYgMTIuODM3djkuNDExaDI0LjY5M3YzLjEzN0gyOS45NzdjLTcuMTc2IDAtMTMuNDYgNC4zMTMtMTUuNDI2IDEyLjUyMS0yLjI2OCA5LjQwNS0yLjM2OCAxNS4yNzUgMCAyNS4wOTYgMS43NTUgNy4zMTEgNS45NDcgMTIuNTE5IDEzLjEyNCAxMi41MTloOC40OTFWNjcuMjM0YzAtOC4xNTEgNy4wNTEtMTUuMzQgMTUuNDI2LTE1LjM0aDI0LjY2NWM2Ljg2NiAwIDEyLjM0Ni01LjY1NCAxMi4zNDYtMTIuNTQ4VjE1LjgzM2MwLTYuNjkzLTUuNjQ2LTExLjcyLTEyLjM0Ni0xMi44MzctNC4yNDQtLjcwNi04LjY0NS0xLjAyNy0xMi44NjYtMS4wMDh6TTUwLjAzNyA5LjU1N2MyLjU1IDAgNC42MzQgMi4xMTcgNC42MzQgNC43MjEgMCAyLjU5My0yLjA4MyA0LjY5LTQuNjM0IDQuNjktMi41NiAwLTQuNjMzLTIuMDk3LTQuNjMzLTQuNjktLjAwMS0yLjYwNCAyLjA3My00LjcyMSA0LjYzMy00LjcyMXoiIHRyYW5zZm9ybT0idHJhbnNsYXRlKDAgMTAuMjYpIi8+PHBhdGggZmlsbD0idXJsKCNweXRob24tb3JpZ2luYWwtYikiIGQ9Ik05MS42ODIgMjguMzh2MTAuOTY2YzAgOC41LTcuMjA4IDE1LjY1NS0xNS40MjYgMTUuNjU1SDUxLjU5MWMtNi43NTYgMC0xMi4zNDYgNS43ODMtMTIuMzQ2IDEyLjU0OXYyMy41MTVjMCA2LjY5MSA1LjgxOCAxMC42MjggMTIuMzQ2IDEyLjU0NyA3LjgxNiAyLjI5NyAxNS4zMTIgMi43MTMgMjQuNjY1IDAgNi4yMTYtMS44MDEgMTIuMzQ2LTUuNDIzIDEyLjM0Ni0xMi41NDd2LTkuNDEySDYzLjkzOHYtMy4xMzhoMzcuMDEyYzcuMTc2IDAgOS44NTItNS4wMDUgMTIuMzQ4LTEyLjUxOSAyLjU3OC03LjczNSAyLjQ2Ny0xNS4xNzQgMC0yNS4wOTYtMS43NzQtNy4xNDUtNS4xNjEtMTIuNTIxLTEyLjM0OC0xMi41MjFoLTkuMjY4ek03Ny44MDkgODcuOTI3YzIuNTYxIDAgNC42MzQgMi4wOTcgNC42MzQgNC42OTIgMCAyLjYwMi0yLjA3NCA0LjcxOS00LjYzNCA0LjcxOS0yLjU1IDAtNC42MzMtMi4xMTctNC42MzMtNC43MTkgMC0yLjU5NSAyLjA4My00LjY5MiA0LjYzMy00LjY5MnoiIHRyYW5zZm9ybT0idHJhbnNsYXRlKDAgMTAuMjYpIi8+PHJhZGlhbEdyYWRpZW50IGlkPSJweXRob24tb3JpZ2luYWwtYyIgY3g9IjE4MjUuNjc4IiBjeT0iNDQ0LjQ1IiByPSIyNi43NDMiIGdyYWRpZW50VHJhbnNmb3JtPSJtYXRyaXgoMCAtLjI0IC0xLjA1NSAwIDUzMi45NzkgNTU3LjU3NikiIGdyYWRpZW50VW5pdHM9InVzZXJTcGFjZU9uVXNlIj48c3RvcCBvZmZzZXQ9IjAiIHN0b3AtY29sb3I9IiNCOEI4QjgiIHN0b3Atb3BhY2l0eT0iLjQ5OCIvPjxzdG9wIG9mZnNldD0iMSIgc3RvcC1jb2xvcj0iIzdGN0Y3RiIgc3RvcC1vcGFjaXR5PSIwIi8+PC9yYWRpYWxHcmFkaWVudD48cGF0aCBvcGFjaXR5PSIuNDQ0IiBmaWxsPSJ1cmwoI3B5dGhvbi1vcmlnaW5hbC1jKSIgZD0iTTk3LjMwOSAxMTkuNTk3YzAgMy41NDMtMTQuODE2IDYuNDE2LTMzLjA5MSA2LjQxNi0xOC4yNzYgMC0zMy4wOTItMi44NzMtMzMuMDkyLTYuNDE2IDAtMy41NDQgMTQuODE1LTYuNDE3IDMzLjA5Mi02LjQxNyAxOC4yNzUgMCAzMy4wOTEgMi44NzIgMzMuMDkxIDYuNDE3eiIvPjwvc3ZnPg==;fontFamily=Lucida Console;" parent="64lL_U8enU3L0a2776Dr-40" vertex="1">
          <mxGeometry x="16.17" y="29.26" width="29.26" height="29.26" as="geometry" />
        </mxCell>
        <mxCell id="64lL_U8enU3L0a2776Dr-46" value="LIB V2.2.1" style="image;aspect=fixed;html=1;points=[];align=center;fontSize=12;image=img/lib/azure2/devops/Lab_Services.svg;" parent="1" vertex="1">
          <mxGeometry x="-50" y="-43" width="35.06" height="34" as="geometry" />
        </mxCell>
        <mxCell id="64lL_U8enU3L0a2776Dr-54" value="Python 3.13" style="shape=image;verticalLabelPosition=bottom;verticalAlign=top;imageAspect=0;aspect=fixed;image=data:image/svg+xml,PHN2ZyB4bWxucz0iaHR0cDovL3d3dy53My5vcmcvMjAwMC9zdmciIHZpZXdCb3g9IjAgMCAxMjggMTI4Ij48bGluZWFyR3JhZGllbnQgaWQ9InB5dGhvbi1vcmlnaW5hbC1hIiBncmFkaWVudFVuaXRzPSJ1c2VyU3BhY2VPblVzZSIgeDE9IjcwLjI1MiIgeTE9IjEyMzcuNDc2IiB4Mj0iMTcwLjY1OSIgeTI9IjExNTEuMDg5IiBncmFkaWVudFRyYW5zZm9ybT0ibWF0cml4KC41NjMgMCAwIC0uNTY4IC0yOS4yMTUgNzA3LjgxNykiPjxzdG9wIG9mZnNldD0iMCIgc3RvcC1jb2xvcj0iIzVBOUZENCIvPjxzdG9wIG9mZnNldD0iMSIgc3RvcC1jb2xvcj0iIzMwNjk5OCIvPjwvbGluZWFyR3JhZGllbnQ+PGxpbmVhckdyYWRpZW50IGlkPSJweXRob24tb3JpZ2luYWwtYiIgZ3JhZGllbnRVbml0cz0idXNlclNwYWNlT25Vc2UiIHgxPSIyMDkuNDc0IiB5MT0iMTA5OC44MTEiIHgyPSIxNzMuNjIiIHkyPSIxMTQ5LjUzNyIgZ3JhZGllbnRUcmFuc2Zvcm09Im1hdHJpeCguNTYzIDAgMCAtLjU2OCAtMjkuMjE1IDcwNy44MTcpIj48c3RvcCBvZmZzZXQ9IjAiIHN0b3AtY29sb3I9IiNGRkQ0M0IiLz48c3RvcCBvZmZzZXQ9IjEiIHN0b3AtY29sb3I9IiNGRkU4NzMiLz48L2xpbmVhckdyYWRpZW50PjxwYXRoIGZpbGw9InVybCgjcHl0aG9uLW9yaWdpbmFsLWEpIiBkPSJNNjMuMzkxIDEuOTg4Yy00LjIyMi4wMi04LjI1Mi4zNzktMTEuOCAxLjAwNy0xMC40NSAxLjg0Ni0xMi4zNDYgNS43MS0xMi4zNDYgMTIuODM3djkuNDExaDI0LjY5M3YzLjEzN0gyOS45NzdjLTcuMTc2IDAtMTMuNDYgNC4zMTMtMTUuNDI2IDEyLjUyMS0yLjI2OCA5LjQwNS0yLjM2OCAxNS4yNzUgMCAyNS4wOTYgMS43NTUgNy4zMTEgNS45NDcgMTIuNTE5IDEzLjEyNCAxMi41MTloOC40OTFWNjcuMjM0YzAtOC4xNTEgNy4wNTEtMTUuMzQgMTUuNDI2LTE1LjM0aDI0LjY2NWM2Ljg2NiAwIDEyLjM0Ni01LjY1NCAxMi4zNDYtMTIuNTQ4VjE1LjgzM2MwLTYuNjkzLTUuNjQ2LTExLjcyLTEyLjM0Ni0xMi44MzctNC4yNDQtLjcwNi04LjY0NS0xLjAyNy0xMi44NjYtMS4wMDh6TTUwLjAzNyA5LjU1N2MyLjU1IDAgNC42MzQgMi4xMTcgNC42MzQgNC43MjEgMCAyLjU5My0yLjA4MyA0LjY5LTQuNjM0IDQuNjktMi41NiAwLTQuNjMzLTIuMDk3LTQuNjMzLTQuNjktLjAwMS0yLjYwNCAyLjA3My00LjcyMSA0LjYzMy00LjcyMXoiIHRyYW5zZm9ybT0idHJhbnNsYXRlKDAgMTAuMjYpIi8+PHBhdGggZmlsbD0idXJsKCNweXRob24tb3JpZ2luYWwtYikiIGQ9Ik05MS42ODIgMjguMzh2MTAuOTY2YzAgOC41LTcuMjA4IDE1LjY1NS0xNS40MjYgMTUuNjU1SDUxLjU5MWMtNi43NTYgMC0xMi4zNDYgNS43ODMtMTIuMzQ2IDEyLjU0OXYyMy41MTVjMCA2LjY5MSA1LjgxOCAxMC42MjggMTIuMzQ2IDEyLjU0NyA3LjgxNiAyLjI5NyAxNS4zMTIgMi43MTMgMjQuNjY1IDAgNi4yMTYtMS44MDEgMTIuMzQ2LTUuNDIzIDEyLjM0Ni0xMi41NDd2LTkuNDEySDYzLjkzOHYtMy4xMzhoMzcuMDEyYzcuMTc2IDAgOS44NTItNS4wMDUgMTIuMzQ4LTEyLjUxOSAyLjU3OC03LjczNSAyLjQ2Ny0xNS4xNzQgMC0yNS4wOTYtMS43NzQtNy4xNDUtNS4xNjEtMTIuNTIxLTEyLjM0OC0xMi41MjFoLTkuMjY4ek03Ny44MDkgODcuOTI3YzIuNTYxIDAgNC42MzQgMi4wOTcgNC42MzQgNC42OTIgMCAyLjYwMi0yLjA3NCA0LjcxOS00LjYzNCA0LjcxOS0yLjU1IDAtNC42MzMtMi4xMTctNC42MzMtNC43MTkgMC0yLjU5NSAyLjA4My00LjY5MiA0LjYzMy00LjY5MnoiIHRyYW5zZm9ybT0idHJhbnNsYXRlKDAgMTAuMjYpIi8+PHJhZGlhbEdyYWRpZW50IGlkPSJweXRob24tb3JpZ2luYWwtYyIgY3g9IjE4MjUuNjc4IiBjeT0iNDQ0LjQ1IiByPSIyNi43NDMiIGdyYWRpZW50VHJhbnNmb3JtPSJtYXRyaXgoMCAtLjI0IC0xLjA1NSAwIDUzMi45NzkgNTU3LjU3NikiIGdyYWRpZW50VW5pdHM9InVzZXJTcGFjZU9uVXNlIj48c3RvcCBvZmZzZXQ9IjAiIHN0b3AtY29sb3I9IiNCOEI4QjgiIHN0b3Atb3BhY2l0eT0iLjQ5OCIvPjxzdG9wIG9mZnNldD0iMSIgc3RvcC1jb2xvcj0iIzdGN0Y3RiIgc3RvcC1vcGFjaXR5PSIwIi8+PC9yYWRpYWxHcmFkaWVudD48cGF0aCBvcGFjaXR5PSIuNDQ0IiBmaWxsPSJ1cmwoI3B5dGhvbi1vcmlnaW5hbC1jKSIgZD0iTTk3LjMwOSAxMTkuNTk3YzAgMy41NDMtMTQuODE2IDYuNDE2LTMzLjA5MSA2LjQxNi0xOC4yNzYgMC0zMy4wOTItMi44NzMtMzMuMDkyLTYuNDE2IDAtMy41NDQgMTQuODE1LTYuNDE3IDMzLjA5Mi02LjQxNyAxOC4yNzUgMCAzMy4wOTEgMi44NzIgMzMuMDkxIDYuNDE3eiIvPjwvc3ZnPg==;fontFamily=Lucida Console;" parent="1" vertex="1">
          <mxGeometry x="114" y="-47" width="42" height="42" as="geometry" />
        </mxCell>
        <mxCell id="64lL_U8enU3L0a2776Dr-55" value="Зависимости/&lt;span style=&quot;background-color: light-dark(rgb(255, 255, 255), rgb(18, 18, 18)); color: light-dark(rgb(0, 0, 0), rgb(255, 255, 255));&quot;&gt;Библиотеки&lt;/span&gt;" style="editableCssRules=.*;html=1;shape=image;verticalLabelPosition=bottom;labelBackgroundColor=#ffffff;verticalAlign=top;aspect=fixed;imageAspect=0;image=data:image/svg+xml,PHN2ZyB4bWxuczppbmtzY2FwZT0iaHR0cDovL3d3dy5pbmtzY2FwZS5vcmcvbmFtZXNwYWNlcy9pbmtzY2FwZSIgeG1sbnM6c29kaXBvZGk9Imh0dHA6Ly9zb2RpcG9kaS5zb3VyY2Vmb3JnZS5uZXQvRFREL3NvZGlwb2RpLTAuZHRkIiB4bWxucz0iaHR0cDovL3d3dy53My5vcmcvMjAwMC9zdmciIHhtbG5zOnN2Zz0iaHR0cDovL3d3dy53My5vcmcvMjAwMC9zdmciIHdpZHRoPSIxMDAuMTE2NjExNjcwNjgwMSIgaGVpZ2h0PSIxMDAuMDMyNDk0OTc4MDAwMzciIHZpZXdCb3g9Ii0wLjA2OTI3NDkwMjM0Mzc1IC0wLjA4MDczNDI1MjkyOTY4NzUgMTAwLjExNjYwNzY2NjAxNTYyIDEwMC4wMzI0ODU5NjE5MTQwNiIgdmVyc2lvbj0iMS4xIiBpZD0ic3ZnNSIgaW5rc2NhcGU6dmVyc2lvbj0iMS4xIChjNjhlMjJjMzg3LCAyMDIxLTA1LTIzKSIgc29kaXBvZGk6ZG9jbmFtZT0iY2xvdWRfdGVzdF9sYWIuc3ZnIj4mI3hhOyAgPHNvZGlwb2RpOm5hbWVkdmlldyBpZD0ibmFtZWR2aWV3NyIgcGFnZWNvbG9yPSIjZmZmZmZmIiBib3JkZXJjb2xvcj0iIzY2NjY2NiIgYm9yZGVyb3BhY2l0eT0iMS4wIiBpbmtzY2FwZTpwYWdlc2hhZG93PSIyIiBpbmtzY2FwZTpwYWdlb3BhY2l0eT0iMC4wIiBpbmtzY2FwZTpwYWdlY2hlY2tlcmJvYXJkPSIwIiBpbmtzY2FwZTpkb2N1bWVudC11bml0cz0ibW0iIHNob3dncmlkPSJmYWxzZSIgaW5rc2NhcGU6em9vbT0iMS4xNTg2NzQ5IiBpbmtzY2FwZTpjeD0iMzczLjI3MTIyIiBpbmtzY2FwZTpjeT0iMjI0LjgyNTc4IiBpbmtzY2FwZTp3aW5kb3ctd2lkdGg9IjE5MjAiIGlua3NjYXBlOndpbmRvdy1oZWlnaHQ9IjEwMTciIGlua3NjYXBlOndpbmRvdy14PSItOCIgaW5rc2NhcGU6d2luZG93LXk9Ii04IiBpbmtzY2FwZTp3aW5kb3ctbWF4aW1pemVkPSIxIiBpbmtzY2FwZTpjdXJyZW50LWxheWVyPSJsYXllcjEiIGZpdC1tYXJnaW4tdG9wPSIwIiBmaXQtbWFyZ2luLWxlZnQ9IjAiIGZpdC1tYXJnaW4tcmlnaHQ9IjAiIGZpdC1tYXJnaW4tYm90dG9tPSIwIi8+JiN4YTsgIDxkZWZzIGlkPSJkZWZzMiIvPiYjeGE7ICA8ZyBpbmtzY2FwZTpsYWJlbD0iTGF5ZXIgMSIgaW5rc2NhcGU6Z3JvdXBtb2RlPSJsYXllciIgaWQ9ImxheWVyMSIgdHJhbnNmb3JtPSJ0cmFuc2xhdGUoMzAzLjQ2MjEzLDMwLjIyODM5NykiPiYjeGE7ICAgIDxwYXRoIGlkPSJwYXRoMTc3OTYtMTciIHN0eWxlPSJvcGFjaXR5OjE7ZmlsbDojNDI4NWY0O3N0cm9rZS13aWR0aDoxMDtzdHJva2UtbGluZWpvaW46cm91bmQ7ZmlsbC1vcGFjaXR5OjEiIGQ9Im0gLTI0MC44OTA4OCw1Ny4zMjMyMDggYSAxMi40MDAxNTQsMTIuNDAwMTU0IDAgMCAxIC0xMi40MDAxNSwxMi40MDAxNTQgMTIuNDAwMTU0LDEyLjQwMDE1NCAwIDAgMSAtMTIuNDAwMTUsLTEyLjQwMDE1NCAxMi40MDAxNTQsMTIuNDAwMTU0IDAgMCAxIDEyLjQwMDE1LC0xMi40MDAxNTQgMTIuNDAwMTU0LDEyLjQwMDE1NCAwIDAgMSAxMi40MDAxNSwxMi40MDAxNTQgeiBNIC0yNzguNzMxMSwxOS42NjYwNjEgYSAxMi40MDAxNTQsMTIuNDAwMTU0IDAgMCAxIC0xMi40MDAxNiwxMi40MDAxNTUgMTIuNDAwMTU0LDEyLjQwMDE1NCAwIDAgMSAtMTIuNDAwMTUsLTEyLjQwMDE1NSAxMi40MDAxNTQsMTIuNDAwMTU0IDAgMCAxIDEyLjQwMDE1LC0xMi40MDAxNTM3IDEyLjQwMDE1NCwxMi40MDAxNTQgMCAwIDEgMTIuNDAwMTYsMTIuNDAwMTUzNyB6IG0gMzcuODQwMjIsMCBhIDEyLjQwMDE1NCwxMi40MDAxNTQgMCAwIDEgLTEyLjQwMDE1LDEyLjQwMDE1NSAxMi40MDAxNTQsMTIuNDAwMTU0IDAgMCAxIC0xMi40MDAxNSwtMTIuNDAwMTU1IDEyLjQwMDE1NCwxMi40MDAxNTQgMCAwIDEgMTIuNDAwMTUsLTEyLjQwMDE1MzcgMTIuNDAwMTU0LDEyLjQwMDE1NCAwIDAgMSAxMi40MDAxNSwxMi40MDAxNTM3IHogbSAzNy40NzYwOSwtMzcuNTc1MDM5IGEgMTIuNDAwMTU0LDEyLjQwMDE1NCAwIDAgMSAtMTIuNDAwMTUsMTIuNDAwMTU0NiAxMi40MDAxNTQsMTIuNDAwMTU0IDAgMCAxIC0xMi40MDAxNiwtMTIuNDAwMTU0NiAxMi40MDAxNTQsMTIuNDAwMTU0IDAgMCAxIDEyLjQwMDE2LC0xMi40MDAxNTQgMTIuNDAwMTU0LDEyLjQwMDE1NCAwIDAgMSAxMi40MDAxNSwxMi40MDAxNTQgeiBtIC0xMi4zOTk2NiwyNS4zNjIxMDMgYyAtNi43MTU0MywwIC0xMi4yMTI4OSw1LjQ5NzQ2NCAtMTIuMjEyODksMTIuMjEyODkxIDAsNi43MTU0MjYgNS40OTc0NiwxMi4yMTI4OSAxMi4yMTI4OSwxMi4yMTI4OSA2LjcxNTQyLDAgMTIuMjEyODksLTUuNDk3NDY0IDEyLjIxMjg5LC0xMi4yMTI4OSAwLC02LjcxNTQyNyAtNS40OTc0NywtMTIuMjEyODkxIC0xMi4yMTI4OSwtMTIuMjEyODkxIHogbSAwLDUgYyA0LjAxMzIzLDAgNy4yMTI4OSwzLjE5OTY2MiA3LjIxMjg5LDcuMjEyODkxIDAsNC4wMTMyMjggLTMuMTk5NjYsNy4yMTI4OSAtNy4yMTI4OSw3LjIxMjg5IC00LjAxMzIzLDAgLTcuMjEyODksLTMuMTk5NjYyIC03LjIxMjg5LC03LjIxMjg5IDAsLTQuMDEzMjI5IDMuMTk5NjYsLTcuMjEyODkxIDcuMjEyODksLTcuMjEyODkxIHogbSAwLDMyLjY1NjI1IGMgLTYuNzE1NDMsMCAtMTIuMjEyODksNS40OTc0NjQgLTEyLjIxMjg5LDEyLjIxMjg5MSAwLDYuNzE1NDI2IDUuNDk3NDYsMTIuMjE0ODQzIDEyLjIxMjg5LDEyLjIxNDg0MyA2LjcxNTQyLDAgMTIuMjEyODksLTUuNDk5NDE3IDEyLjIxMjg5LC0xMi4yMTQ4NDMgMCwtNi43MTU0MjcgLTUuNDk3NDcsLTEyLjIxMjg5MSAtMTIuMjEyODksLTEyLjIxMjg5MSB6IG0gMCw1IGMgNC4wMTMyMywwIDcuMjEyODksMy4xOTk2NjIgNy4yMTI4OSw3LjIxMjg5MSAwLDQuMDEzMjI4IC0zLjE5OTY2LDcuMjE0ODQzIC03LjIxMjg5LDcuMjE0ODQzIC00LjAxMzIzLDAgLTcuMjEyODksLTMuMjAxNjE1IC03LjIxMjg5LC03LjIxNDg0MyAwLC00LjAxMzIyOSAzLjE5OTY2LC03LjIxMjg5MSA3LjIxMjg5LC03LjIxMjg5MSB6IG0gLTc1LjMxNjQxLC01IGMgLTYuNzE1NDMsMCAtMTIuMjEyODksNS40OTc0NjQgLTEyLjIxMjg5LDEyLjIxMjg5MSAwLDYuNzE1NDI2IDUuNDk3NDYsMTIuMjE0ODQzIDEyLjIxMjg5LDEyLjIxNDg0MyA2LjcxNTQzLDAgMTIuMjEyODksLTUuNDk5NDE3IDEyLjIxMjg5LC0xMi4yMTQ4NDMgMCwtNi43MTU0MjcgLTUuNDk3NDYsLTEyLjIxMjg5MSAtMTIuMjEyODksLTEyLjIxMjg5MSB6IG0gMCw1IGMgNC4wMTMyMywwIDcuMjEyODksMy4xOTk2NjIgNy4yMTI4OSw3LjIxMjg5MSAwLDQuMDEzMjI4IC0zLjE5OTY2LDcuMjE0ODQzIC03LjIxMjg5LDcuMjE0ODQzIC00LjAxMzIzLDAgLTcuMjEyODksLTMuMjAxNjE1IC03LjIxMjg5LC03LjIxNDg0MyAwLC00LjAxMzIyOSAzLjE5OTY2LC03LjIxMjg5MSA3LjIxMjg5LC03LjIxMjg5MSB6IG0gMCwtODAuMjMwNDY5IGMgLTYuNzE1NDMsMCAtMTIuMjEyODksNS40OTc0NjQgLTEyLjIxMjg5LDEyLjIxMjg5MSAwLDYuNzE1NDI2IDUuNDk3NDYsMTIuMjEyODkwNSAxMi4yMTI4OSwxMi4yMTI4OTA1IDYuNzE1NDMsMCAxMi4yMTI4OSwtNS40OTc0NjQ1IDEyLjIxMjg5LC0xMi4yMTI4OTA1IDAsLTYuNzE1NDI3IC01LjQ5NzQ2LC0xMi4yMTI4OTEgLTEyLjIxMjg5LC0xMi4yMTI4OTEgeiBtIDAsNSBjIDQuMDEzMjMsMCA3LjIxMjg5LDMuMTk5NjYyIDcuMjEyODksNy4yMTI4OTEgMCw0LjAxMzIyOSAtMy4xOTk2Niw3LjIxMjg5IC03LjIxMjg5LDcuMjEyODkgLTQuMDEzMjMsMCAtNy4yMTI4OSwtMy4xOTk2NjEgLTcuMjEyODksLTcuMjEyODkgMCwtNC4wMTMyMjkgMy4xOTk2NiwtNy4yMTI4OTEgNy4yMTI4OSwtNy4yMTI4OTEgeiBtIDM3LjgzOTg0LC01IGMgLTYuNzE1NDIsMCAtMTIuMjEyODksNS40OTc0NjQgLTEyLjIxMjg5LDEyLjIxMjg5MSAwLDYuNzE1NDI2IDUuNDk3NDcsMTIuMjEyODkwNSAxMi4yMTI4OSwxMi4yMTI4OTA1IDYuNzE1NDMsMCAxMi4yMTI5LC01LjQ5NzQ2NDUgMTIuMjEyOSwtMTIuMjEyODkwNSAwLC02LjcxNTQyNyAtNS40OTc0NywtMTIuMjEyODkxIC0xMi4yMTI5LC0xMi4yMTI4OTEgeiBtIDAsNSBjIDQuMDEzMjMsMCA3LjIxMjksMy4xOTk2NjIgNy4yMTI5LDcuMjEyODkxIDAsNC4wMTMyMjkgLTMuMTk5NjcsNy4yMTI4OSAtNy4yMTI5LDcuMjEyODkgLTQuMDEzMjIsMCAtNy4yMTI4OSwtMy4xOeditableCssRules=.*;shape=image;verticalLabelPosition=bottom;labelBackgroundColor=#ffffff;verticalAlign=top;aspect=fixed;imageAspect=0;image=data:image/svg+xml,PHN2ZyB4bWxucz0iaHR0cDovL3d3dy53My5vcmcvMjAwMC9zdmciIHhtbG5zOnY9Imh0dHBzOi8vdmVjdGEuaW8vbmFubyIgd2lkdGg9IjM3OC4zOTE0MTUzMjk4OTUiIGhlaWdodD0iMzc4LjA3Mzc3NjA3MzI4MTMiIHZpZXdCb3g9Ii0wLjA2OTAwMDI0NDE0MDYyNSAtMC4wODA5OTkzNzQzODk2NDg0NCAxMDAuMTE1OTk3MzE0NDUzMTIgMTAwLjAzMjAwNTMxMDA1ODYiPiYjeGE7PHN0eWxlIHR5cGU9InRleHQvY3NzIj4mI3hhOwkuc3Qwe2ZpbGw6IzQyODVmNDt9JiN4YTs8L3N0eWxlPiYjeGE7CTxwYXRoIGNsYXNzPSJzdDAiIGQ9Ik02Mi41NzEgODcuNTUxYzAgNi44NDgtNS41NTIgMTIuNC0xMi40IDEyLjRzLTEyLjQtNS41NTItMTIuNC0xMi40IDUuNTUyLTEyLjQgMTIuNC0xMi40IDEyLjQgNS41NTIgMTIuNCAxMi40em0tMzcuODQtMzcuNjU3YTEyLjQgMTIuNCAwIDAgMS0xMi40IDEyLjRjLTYuODQ4IDAtMTIuNC01LjU1Mi0xMi40LTEyLjRzNS41NTItMTIuNCAxMi40LTEyLjRhMTIuNCAxMi40IDAgMCAxIDEyLjQgMTIuNHptMzcuODQgMGMwIDYuODQ4LTUuNTUyIDEyLjQtMTIuNCAxMi40cy0xMi40LTUuNTUyLTEyLjQtMTIuNCA1LjU1Mi0xMi40IDEyLjQtMTIuNCAxMi40IDUuNTUyIDEyLjQgMTIuNHptMzcuNDc2LTM3LjU3NWMwIDYuODQ4LTUuNTUyIDEyLjQtMTIuNCAxMi40YTEyLjQgMTIuNCAwIDAgMS0xMi40LTEyLjQgMTIuNCAxMi40IDAgMCAxIDEyLjQtMTIuNGM2Ljg0OCAwIDEyLjQgNS41NTIgMTIuNCAxMi40em0tMTIuNCAyNS4zNjJjLTYuNzE1IDAtMTIuMjEzIDUuNDk3LTEyLjIxMyAxMi4yMTNzNS40OTcgMTIuMjEzIDEyLjIxMyAxMi4yMTNTOTkuODYgNTYuNjA5IDk5Ljg2IDQ5Ljg5NHMtNS40OTctMTIuMjEzLTEyLjIxMy0xMi4yMTN6bTAgNWM0LjAxMyAwIDcuMjEzIDMuMiA3LjIxMyA3LjIxM3MtMy4yIDcuMjEzLTcuMjEzIDcuMjEzLTcuMjEzLTMuMi03LjIxMy03LjIxMyAzLjItNy4yMTMgNy4yMTMtNy4yMTN6bTAgMzIuNjU2Yy02LjcxNSAwLTEyLjIxMyA1LjQ5Ny0xMi4yMTMgMTIuMjEzczUuNDk3IDEyLjIxNSAxMi4yMTMgMTIuMjE1Uzk5Ljg2IDk0LjI2NiA5OS44NiA4Ny41NXMtNS40OTctMTIuMjEzLTEyLjIxMy0xMi4yMTN6bTAgNWM0LjAxMyAwIDcuMjEzIDMuMiA3LjIxMyA3LjIxM3MtMy4yIDcuMjE1LTcuMjEzIDcuMjE1LTcuMjEzLTMuMjAyLTcuMjEzLTcuMjE1IDMuMi03LjIxMyA3LjIxMy03LjIxM3ptLTc1LjMxNi01QzUuNjE2IDc1LjMzNy4xMTggODAuODM1LjExOCA4Ny41NXM1LjQ5NyAxMi4yMTUgMTIuMjEzIDEyLjIxNSAxMi4yMTMtNS40OTkgMTIuMjEzLTEyLjIxNS01LjQ5Ny0xMi4yMTMtMTIuMjEzLTEyLjIxM3ptMCA1YzQuMDEzIDAgNy4yMTMgMy4yIDcuMjEzIDcuMjEzcy0zLjIgNy4yMTUtNy4yMTMgNy4yMTUtNy4yMTMtMy4yMDItNy4yMTMtNy4yMTUgMy4yLTcuMjEzIDcuMjEzLTcuMjEzem0wLTgwLjIzQzUuNjE2LjEwNy4xMTggNS42MDQuMTE4IDEyLjMyczUuNDk3IDEyLjIxMyAxMi4yMTMgMTIuMjEzIDEyLjIxMy01LjQ5NyAxMi4yMTMtMTIuMjEzUzE5LjA0Ny4xMDcgMTIuMzMxLjEwN3ptMCA1YzQuMDEzIDAgNy4yMTMgMy4yIDcuMjEzIDcuMjEzcy0zLjIgNy4yMTMtNy4yMTMgNy4yMTMtNy4yMTMtMy4yLTcuMjEzLTcuMjEzIDMuMi03LjIxMyA3LjIxMy03LjIxM3ptMzcuODQtNWMtNi43MTUgMC0xMi4yMTMgNS40OTctMTIuMjEzIDEyLjIxM3M1LjQ5NyAxMi4yMTMgMTIuMjEzIDEyLjIxMyAxMi4yMTMtNS40OTcgMTIuMjEzLTEyLjIxM1M1Ni44ODYuMTA3IDUwLjE3MS4xMDd6bTAgNWM0LjAxMyAwIDcuMjEzIDMuMiA3LjIxMyA3LjIxM3MtMy4yIDcuMjEzLTcuMjEzIDcuMjEzLTcuMjEzLTMuMi03LjIxMy03LjIxMyAzLjItNy4yMTMgNy4yMTMtNy4yMTN6Ii8+JiN4YTs8L3N2Zz4=;Tk2NjEgLTcuMjEyODksLTcuMjEyODkgMCwtNC4wMTMyMjkgMy4xOTk2NywtNy4yMTI4OTEgNy4yMTI4OSwtNy4yMTI4OTEgeiIvPiYjeGE7ICA8L2c+JiN4YTs8L3N2Zz4=;" parent="1" vertex="1">
          <mxGeometry x="14.190000000000055" y="-43" width="60" height="60" as="geometry" />
        </mxCell>
        <mxCell id="64lL_U8enU3L0a2776Dr-58" value="Python 3.13" style="shape=image;verticalLabelPosition=bottom;verticalAlign=top;imageAspect=0;aspect=fixed;image=data:image/svg+xml,PHN2ZyB4bWxucz0iaHR0cDovL3d3dy53My5vcmcvMjAwMC9zdmciIHZpZXdCb3g9IjAgMCAxMjggMTI4Ij48bGluZWFyR3JhZGllbnQgaWQ9InB5dGhvbi1vcmlnaW5hbC1hIiBncmFkaWVudFVuaXRzPSJ1c2VyU3BhY2VPblVzZSIgeDE9IjcwLjI1MiIgeTE9IjEyMzcuNDc2IiB4Mj0iMTcwLjY1OSIgeTI9IjExNTEuMDg5IiBncmFkaWVudFRyYW5zZm9ybT0ibWF0cml4KC41NjMgMCAwIC0uNTY4IC0yOS4yMTUgNzA3LjgxNykiPjxzdG9wIG9mZnNldD0iMCIgc3RvcC1jb2xvcj0iIzVBOUZENCIvPjxzdG9wIG9mZnNldD0iMSIgc3RvcC1jb2xvcj0iIzMwNjk5OCIvPjwvbGluZWFyR3JhZGllbnQ+PGxpbmVhckdyYWRpZW50IGlkPSJweXRob24tb3JpZ2luYWwtYiIgZ3JhZGllbnRVbml0cz0idXNlclNwYWNlT25Vc2UiIHgxPSIyMDkuNDc0IiB5MT0iMTA5OC44MTEiIHgyPSIxNzMuNjIiIHkyPSIxMTQ5LjUzNyIgZ3JhZGllbnRUcmFuc2Zvcm09Im1hdHJpeCguNTYzIDAgMCAtLjU2OCAtMjkuMjE1IDcwNy44MTcpIj48c3RvcCBvZmZzZXQ9IjAiIHN0b3AtY29sb3I9IiNGRkQ0M0IiLz48c3RvcCBvZmZzZXQ9IjEiIHN0b3AtY29sb3I9IiNGRkU4NzMiLz48L2xpbmVhckdyYWRpZW50PjxwYXRoIGZpbGw9InVybCgjcHl0aG9uLW9yaWdpbmFsLWEpIiBkPSJNNjMuMzkxIDEuOTg4Yy00LjIyMi4wMi04LjI1Mi4zNzktMTEuOCAxLjAwNy0xMC40NSAxLjg0Ni0xMi4zNDYgNS43MS0xMi4zNDYgMTIuODM3djkuNDExaDI0LjY5M3YzLjEzN0gyOS45NzdjLTcuMTc2IDAtMTMuNDYgNC4zMTMtMTUuNDI2IDEyLjUyMS0yLjI2OCA5LjQwNS0yLjM2OCAxNS4yNzUgMCAyNS4wOTYgMS43NTUgNy4zMTEgNS45NDcgMTIuNTE5IDEzLjEyNCAxMi41MTloOC40OTFWNjcuMjM0YzAtOC4xNTEgNy4wNTEtMTUuMzQgMTUuNDI2LTE1LjM0aDI0LjY2NWM2Ljg2NiAwIDEyLjM0Ni01LjY1NCAxMi4zNDYtMTIuNTQ4VjE1LjgzM2MwLTYuNjkzLTUuNjQ2LTExLjcyLTEyLjM0Ni0xMi44MzctNC4yNDQtLjcwNi04LjY0NS0xLjAyNy0xMi44NjYtMS4wMDh6TTUwLjAzNyA5LjU1N2MyLjU1IDAgNC42MzQgMi4xMTcgNC42MzQgNC43MjEgMCAyLjU5My0yLjA4MyA0LjY5LTQuNjM0IDQuNjktMi41NiAwLTQuNjMzLTIuMDk3LTQuNjMzLTQuNjktLjAwMS0yLjYwNCAyLjA3My00LjcyMSA0LjYzMy00LjcyMXoiIHRyYW5zZm9ybT0idHJhbnNsYXRlKDAgMTAuMjYpIi8+PHBhdGggZmlsbD0idXJsKCNweXRob24tb3JpZ2luYWwtYikiIGQ9Ik05MS42ODIgMjguMzh2MTAuOTY2YzAgOC41LTcuMjA4IDE1LjY1NS0xNS40MjYgMTUuNjU1SDUxLjU5MWMtNi43NTYgMC0xMi4zNDYgNS43ODMtMTIuMzQ2IDEyLjU0OXYyMy41MTVjMCA2LjY5MSA1LjgxOCAxMC42MjggMTIuMzQ2IDEyLjU0NyA3LjgxNiAyLjI5NyAxNS4zMTIgMi43MTMgMjQuNjY1IDAgNi4yMTYtMS44MDEgMTIuMzQ2LTUuNDIzIDEyLjM0Ni0xMi41NDd2LTkuNDEySDYzLjkzOHYtMy4xMzhoMzcuMDEyYzcuMTc2IDAgOS44NTItNS4wMDUgMTIuMzQ4LTEyLjUxOSAyLjU3OC03LjczNSAyLjQ2Ny0xNS4xNzQgMC0yNS4wOTYtMS43NzQtNy4xNDUtNS4xNjEtMTIuNTIxLTEyLjM0OC0xMi41MjFoLTkuMjY4ek03Ny44MDkgODcuOTI3YzIuNTYxIDAgNC42MzQgMi4wOTcgNC42MzQgNC42OTIgMCAyLjYwMi0yLjA3NCA0LjcxOS00LjYzNCA0LjcxOS0yLjU1IDAtNC42MzMtMi4xMTctNC42MzMtNC43MTkgMC0yLjU5NSAyLjA4My00LjY5MiA0LjYzMy00LjY5MnoiIHRyYW5zZm9ybT0idHJhbnNsYXRlKDAgMTAuMjYpIi8+PHJhZGlhbEdyYWRpZW50IGlkPSJweXRob24tb3JpZ2luYWwtYyIgY3g9IjE4MjUuNjc4IiBjeT0iNDQ0LjQ1IiByPSIyNi43NDMiIGdyYWRpZW50VHJhbnNmb3JtPSJtYXRyaXgoMCAtLjI0IC0xLjA1NSAwIDUzMi45NzkgNTU3LjU3NikiIGdyYWRpZW50VW5pdHM9InVzZXJTcGFjZU9uVXNlIj48c3RvcCBvZmZzZXQ9IjAiIHN0b3AtY29sb3I9IiNCOEI4QjgiIHN0b3Atb3BhY2l0eT0iLjQ5OCIvPjxzdG9wIG9mZnNldD0iMSIgc3RvcC1jb2xvcj0iIzdGN0Y3RiIgc3RvcC1vcGFjaXR5PSIwIi8+PC9yYWRpYWxHcmFkaWVudD48cGF0aCBvcGFjaXR5PSIuNDQ0IiBmaWxsPSJ1cmwoI3B5dGhvbi1vcmlnaW5hbC1jKSIgZD0iTTk3LjMwOSAxMTkuNTk3YzAgMy41NDMtMTQuODE2IDYuNDE2LTMzLjA5MSA2LjQxNi0xOC4yNzYgMC0zMy4wOTItMi44NzMtMzMuMDkyLTYuNDE2IDAtMy41NDQgMTQuODE1LTYuNDE3IDMzLjA5Mi02LjQxNyAxOC4yNzUgMCAzMy4wOTEgMi44NzIgMzMuMDkxIDYuNDE3eiIvPjwvc3ZnPg==;fontFamily=Lucida Console;" parent="1" vertex="1">
          <mxGeometry x="68" y="-392" width="42" height="42" as="geometry" />
        </mxCell>
        <mxCell id="64lL_U8enU3L0a2776Dr-59" value="Зависимости/&lt;span style=&quot;background-color: light-dark(rgb(255, 255, 255), rgb(18, 18, 18)); color: light-dark(rgb(0, 0, 0), rgb(255, 255, 255));&quot;&gt;Библиотеки&lt;/span&gt;" style="editableCssRules=.*;html=1;shape=image;verticalLabelPosition=bottom;labelBackgroundColor=#ffffff;verticalAlign=top;aspect=fixed;imageAspect=0;image=data:image/svg+xml,PHN2ZyB4bWxuczppbmtzY2FwZT0iaHR0cDovL3d3dy5pbmtzY2FwZS5vcmcvbmFtZXNwYWNlcy9pbmtzY2FwZSIgeG1sbnM6c29kaXBvZGk9Imh0dHA6Ly9zb2RpcG9kaS5zb3VyY2Vmb3JnZS5uZXQvRFREL3NvZGlwb2RpLTAuZHRkIiB4bWxucz0iaHR0cDovL3d3dy53My5vcmcvMjAwMC9zdmciIHhtbG5zOnN2Zz0iaHR0cDovL3d3dy53My5vcmcvMjAwMC9zdmciIHdpZHRoPSIxMDAuMTE2NjExNjcwNjgwMSIgaGVpZ2h0PSIxMDAuMDMyNDk0OTc4MDAwMzciIHZpZXdCb3g9Ii0wLjA2OTI3NDkwMjM0Mzc1IC0wLjA4MDczNDI1MjkyOTY4NzUgMTAwLjExNjYwNzY2NjAxNTYyIDEwMC4wMzI0ODU5NjE5MTQwNiIgdmVyc2lvbj0iMS4xIiBpZD0ic3ZnNSIgaW5rc2NhcGU6dmVyc2lvbj0iMS4xIChjNjhlMjJjMzg3LCAyMDIxLTA1LTIzKSIgc29kaXBvZGk6ZG9jbmFtZT0iY2xvdWRfdGVzdF9sYWIuc3ZnIj4mI3hhOyAgPHNvZGlwb2RpOm5hbWVkdmlldyBpZD0ibmFtZWR2aWV3NyIgcGFnZWNvbG9yPSIjZmZmZmZmIiBib3JkZXJjb2xvcj0iIzY2NjY2NiIgYm9yZGVyb3BhY2l0eT0iMS4wIiBpbmtzY2FwZTpwYWdlc2hhZG93PSIyIiBpbmtzY2FwZTpwYWdlb3BhY2l0eT0iMC4wIiBpbmtzY2FwZTpwYWdlY2hlY2tlcmJvYXJkPSIwIiBpbmtzY2FwZTpkb2N1bWVudC11bml0cz0ibW0iIHNob3dncmlkPSJmYWxzZSIgaW5rc2NhcGU6em9vbT0iMS4xNTg2NzQ5IiBpbmtzY2FwZTpjeD0iMzczLjI3MTIyIiBpbmtzY2FwZTpjeT0iMjI0LjgyNTc4IiBpbmtzY2FwZTp3aW5kb3ctd2lkdGg9IjE5MjAiIGlua3NjYXBlOndpbmRvdy1oZWlnaHQ9IjEwMTciIGlua3NjYXBlOndpbmRvdy14PSItOCIgaW5rc2NhcGU6d2luZG93LXk9Ii04IiBpbmtzY2FwZTp3aW5kb3ctbWF4aW1pemVkPSIxIiBpbmtzY2FwZTpjdXJyZW50LWxheWVyPSJsYXllcjEiIGZpdC1tYXJnaW4tdG9wPSIwIiBmaXQtbWFyZ2luLWxlZnQ9IjAiIGZpdC1tYXJnaW4tcmlnaHQ9IjAiIGZpdC1tYXJnaW4tYm90dG9tPSIwIi8+JiN4YTsgIDxkZWZzIGlkPSJkZWZzMiIvPiYjeGE7ICA8ZyBpbmtzY2FwZTpsYWJlbD0iTGF5ZXIgMSIgaW5rc2NhcGU6Z3JvdXBtb2RlPSJsYXllciIgaWQ9ImxheWVyMSIgdHJhbnNmb3JtPSJ0cmFuc2xhdGUoMzAzLjQ2MjEzLDMwLjIyODM5NykiPiYjeGE7ICAgIDxwYXRoIGlkPSJwYXRoMTc3OTYtMTciIHN0eWxlPSJvcGFjaXR5OjE7ZmlsbDojNDI4NWY0O3N0cm9rZS13aWR0aDoxMDtzdHJva2UtbGluZWpvaW46cm91bmQ7ZmlsbC1vcGFjaXR5OjEiIGQ9Im0gLTI0MC44OTA4OCw1Ny4zMjMyMDggYSAxMi40MDAxNTQsMTIuNDAwMTU0IDAgMCAxIC0xMi40MDAxNSwxMi40MDAxNTQgMTIuNDAwMTU0LDEyLjQwMDE1NCAwIDAgMSAtMTIuNDAwMTUsLTEyLjQwMDE1NCAxMi40MDAxNTQsMTIuNDAwMTU0IDAgMCAxIDEyLjQwMDE1LC0xMi40MDAxNTQgMTIuNDAwMTU0LDEyLjQwMDE1NCAwIDAgMSAxMi40MDAxNSwxMi40MDAxNTQgeiBNIC0yNzguNzMxMSwxOS42NjYwNjEgYSAxMi40MDAxNTQsMTIuNDAwMTU0IDAgMCAxIC0xMi40MDAxNiwxMi40MDAxNTUgMTIuNDAwMTU0LDEyLjQwMDE1NCAwIDAgMSAtMTIuNDAwMTUsLTEyLjQwMDE1NSAxMi40MDAxNTQsMTIuNDAwMTU0IDAgMCAxIDEyLjQwMDE1LC0xMi40MDAxNTM3IDEyLjQwMDE1NCwxMi40MDAxNTQgMCAwIDEgMTIuNDAwMTYsMTIuNDAwMTUzNyB6IG0gMzcuODQwMjIsMCBhIDEyLjQwMDE1NCwxMi40MDAxNTQgMCAwIDEgLTEyLjQwMDE1LDEyLjQwMDE1NSAxMi40MDAxNTQsMTIuNDAwMTU0IDAgMCAxIC0xMi40MDAxNSwtMTIuNDAwMTU1IDEyLjQwMDE1NCwxMi40MDAxNTQgMCAwIDEgMTIuNDAwMTUsLTEyLjQwMDE1MzcgMTIuNDAwMTU0LDEyLjQwMDE1NCAwIDAgMSAxMi40MDAxNSwxMi40MDAxNTM3IHogbSAzNy40NzYwOSwtMzcuNTc1MDM5IGEgMTIuNDAwMTU0LDEyLjQwMDE1NCAwIDAgMSAtMTIuNDAwMTUsMTIuNDAwMTU0NiAxMi40MDAxNTQsMTIuNDAwMTU0IDAgMCAxIC0xMi40MDAxNiwtMTIuNDAwMTU0NiAxMi40MDAxNTQsMTIuNDAwMTU0IDAgMCAxIDEyLjQwMDE2LC0xMi40MDAxNTQgMTIuNDAwMTU0LDEyLjQwMDE1NCAwIDAgMSAxMi40MDAxNSwxMi40MDAxNTQgeiBtIC0xMi4zOTk2NiwyNS4zNjIxMDMgYyAtNi43MTU0MywwIC0xMi4yMTI4OSw1LjQ5NzQ2NCAtMTIuMjEyODksMTIuMjEyODkxIDAsNi43MTU0MjYgNS40OTc0NiwxMi4yMTI4OSAxMi4yMTI4OSwxMi4yMTI4OSA2LjcxNTQyLDAgMTIuMjEyODksLTUuNDk3NDY0IDEyLjIxMjg5LC0xMi4yMTI4OSAwLC02LjcxNTQyNyAtNS40OTc0NywtMTIuMjEyODkxIC0xMi4yMTI4OSwtMTIuMjEyODkxIHogbSAwLDUgYyA0LjAxMzIzLDAgNy4yMTI4OSwzLjE5OTY2MiA3LjIxMjg5LDcuMjEyODkxIDAsNC4wMTMyMjggLTMuMTk5NjYsNy4yMTI4OSAtNy4yMTI4OSw3LjIxMjg5IC00LjAxMzIzLDAgLTcuMjEyODksLTMuMTk5NjYyIC03LjIxMjg5LC03LjIxMjg5IDAsLTQuMDEzMjI5IDMuMTk5NjYsLTcuMjEyODkxIDcuMjEyODksLTcuMjEyODkxIHogbSAwLDMyLjY1NjI1IGMgLTYuNzE1NDMsMCAtMTIuMjEyODksNS40OTc0NjQgLTEyLjIxMjg5LDEyLjIxMjg5MSAwLDYuNzE1NDI2IDUuNDk3NDYsMTIuMjE0ODQzIDEyLjIxMjg5LDEyLjIxNDg0MyA2LjcxNTQyLDAgMTIuMjEyODksLTUuNDk5NDE3IDEyLjIxMjg5LC0xMi4yMTQ4NDMgMCwtNi43MTU0MjcgLTUuNDk3NDcsLTEyLjIxMjg5MSAtMTIuMjEyODksLTEyLjIxMjg5MSB6IG0gMCw1IGMgNC4wMTMyMywwIDcuMjEyODksMy4xOTk2NjIgNy4yMTI4OSw3LjIxMjg5MSAwLDQuMDEzMjI4IC0zLjE5OTY2LDcuMjE0ODQzIC03LjIxMjg5LDcuMjE0ODQzIC00LjAxMzIzLDAgLTcuMjEyODksLTMuMjAxNjE1IC03LjIxMjg5LC03LjIxNDg0MyAwLC00LjAxMzIyOSAzLjE5OTY2LC03LjIxMjg5MSA3LjIxMjg5LC03LjIxMjg5MSB6IG0gLTc1LjMxNjQxLC01IGMgLTYuNzE1NDMsMCAtMTIuMjEyODksNS40OTc0NjQgLTEyLjIxMjg5LDEyLjIxMjg5MSAwLDYuNzE1NDI2IDUuNDk3NDYsMTIuMjE0ODQzIDEyLjIxMjg5LDEyLjIxNDg0MyA2LjcxNTQzLDAgMTIuMjEyODksLTUuNDk5NDE3IDEyLjIxMjg5LC0xMi4yMTQ4NDMgMCwtNi43MTU0MjcgLTUuNDk3NDYsLTEyLjIxMjg5MSAtMTIuMjEyODksLTEyLjIxMjg5MSB6IG0gMCw1IGMgNC4wMTMyMywwIDcuMjEyODksMy4xOTk2NjIgNy4yMTI4OSw3LjIxMjg5MSAwLDQuMDEzMjI4IC0zLjE5OTY2LDcuMjE0ODQzIC03LjIxMjg5LDcuMjE0ODQzIC00LjAxMzIzLDAgLTcuMjEyODksLTMuMjAxNjE1IC03LjIxMjg5LC03LjIxNDg0MyAwLC00LjAxMzIyOSAzLjE5OTY2LC03LjIxMjg5MSA3LjIxMjg5LC03LjIxMjg5MSB6IG0gMCwtODAuMjMwNDY5IGMgLTYuNzE1NDMsMCAtMTIuMjEyODksNS40OTc0NjQgLTEyLjIxMjg5LDEyLjIxMjg5MSAwLDYuNzE1NDI2IDUuNDk3NDYsMTIuMjEyODkwNSAxMi4yMTI4OSwxMi4yMTI4OTA1IDYuNzE1NDMsMCAxMi4yMTI4OSwtNS40OTc0NjQ1IDEyLjIxMjg5LC0xMi4yMTI4OTA1IDAsLTYuNzE1NDI3IC01LjQ5NzQ2LC0xMi4yMTI4OTEgLTEyLjIxMjg5LC0xMi4yMTI4OTEgeiBtIDAsNSBjIDQuMDEzMjMsMCA3LjIxMjg5LDMuMTk5NjYyIDcuMjEyODksNy4yMTI4OTEgMCw0LjAxMzIyOSAtMy4xOTk2Niw3LjIxMjg5IC03LjIxMjg5LDcuMjEyODkgLTQuMDEzMjMsMCAtNy4yMTI4OSwtMy4xOTk2NjEgLTcuMjEyODksLTcuMjEyODkgMCwtNC4wMTMyMjkgMy4xOTk2NiwtNy4yMTI4OTEgNy4yMTI4OSwtNy4yMTI4OTEgeiBtIDM3LjgzOTg0LC01IGMgLTYuNzE1NDIsMCAtMTIuMjEyODksNS40OTc0NjQgLTEyLjIxMjg5LDEyLjIxMjg5MSAwLDYuNzE1NDI2IDUuNDk3NDcsMTIuMjEyODkwNSAxMi4yMTI4OSwxMi4yMTI4OTA1IDYuNzE1NDMsMCAxMi4yMTI5LC01LjQ5NzQ2NDUgMTIuMjEyOSwtMTIuMjEyODkwNSAwLC02LjcxNTQyNyAtNS40OTc0NywtMTIuMjEyODkxIC0xMi4yMTI5LC0xMi4yMTI4OTEgeiBtIDAsNSBjIDQuMDEzMjMsMCA3LjIxMjksMy4xOTk2NjIgNy4yMTI5LDcuMjEyODkxIDAsNC4wMTMyMjkgLTMuMTk5NjcsNy4yMTI4OSAtNy4yMTI5LDcuMjEyODkgLTQuMDEzMjIsMCAtNy4yMTI4OSwtMy4xOeditableCssRules=.*;shape=image;verticalLabelPosition=bottom;labelBackgroundColor=#ffffff;verticalAlign=top;aspect=fixed;imageAspect=0;image=data:image/svg+xml,PHN2ZyB4bWxucz0iaHR0cDovL3d3dy53My5vcmcvMjAwMC9zdmciIHhtbG5zOnY9Imh0dHBzOi8vdmVjdGEuaW8vbmFubyIgd2lkdGg9IjM3OC4zOTE0MTUzMjk4OTUiIGhlaWdodD0iMzc4LjA3Mzc3NjA3MzI4MTMiIHZpZXdCb3g9Ii0wLjA2OTAwMDI0NDE0MDYyNSAtMC4wODA5OTkzNzQzODk2NDg0NCAxMDAuMTE1OTk3MzE0NDUzMTIgMTAwLjAzMjAwNTMxMDA1ODYiPiYjeGE7PHN0eWxlIHR5cGU9InRleHQvY3NzIj4mI3hhOwkuc3Qwe2ZpbGw6IzQyODVmNDt9JiN4YTs8L3N0eWxlPiYjeGE7CTxwYXRoIGNsYXNzPSJzdDAiIGQ9Ik02Mi41NzEgODcuNTUxYzAgNi44NDgtNS41NTIgMTIuNC0xMi40IDEyLjRzLTEyLjQtNS41NTItMTIuNC0xMi40IDUuNTUyLTEyLjQgMTIuNC0xMi40IDEyLjQgNS41NTIgMTIuNCAxMi40em0tMzcuODQtMzcuNjU3YTEyLjQgMTIuNCAwIDAgMS0xMi40IDEyLjRjLTYuODQ4IDAtMTIuNC01LjU1Mi0xMi40LTEyLjRzNS41NTItMTIuNCAxMi40LTEyLjRhMTIuNCAxMi40IDAgMCAxIDEyLjQgMTIuNHptMzcuODQgMGMwIDYuODQ4LTUuNTUyIDEyLjQtMTIuNCAxMi40cy0xMi40LTUuNTUyLTEyLjQtMTIuNCA1LjU1Mi0xMi40IDEyLjQtMTIuNCAxMi40IDUuNTUyIDEyLjQgMTIuNHptMzcuNDc2LTM3LjU3NWMwIDYuODQ4LTUuNTUyIDEyLjQtMTIuNCAxMi40YTEyLjQgMTIuNCAwIDAgMS0xMi40LTEyLjQgMTIuNCAxMi40IDAgMCAxIDEyLjQtMTIuNGM2Ljg0OCAwIDEyLjQgNS41NTIgMTIuNCAxMi40em0tMTIuNCAyNS4zNjJjLTYuNzE1IDAtMTIuMjEzIDUuNDk3LTEyLjIxMyAxMi4yMTNzNS40OTcgMTIuMjEzIDEyLjIxMyAxMi4yMTNTOTkuODYgNTYuNjA5IDk5Ljg2IDQ5Ljg5NHMtNS40OTctMTIuMjEzLTEyLjIxMy0xMi4yMTN6bTAgNWM0LjAxMyAwIDcuMjEzIDMuMiA3LjIxMyA3LjIxM3MtMy4yIDcuMjEzLTcuMjEzIDcuMjEzLTcuMjEzLTMuMi03LjIxMy03LjIxMyAzLjItNy4yMTMgNy4yMTMtNy4yMTN6bTAgMzIuNjU2Yy02LjcxNSAwLTEyLjIxMyA1LjQ5Ny0xMi4yMTMgMTIuMjEzczUuNDk3IDEyLjIxNSAxMi4yMTMgMTIuMjE1Uzk5Ljg2IDk0LjI2NiA5OS44NiA4Ny41NXMtNS40OTctMTIuMjEzLTEyLjIxMy0xMi4yMTN6bTAgNWM0LjAxMyAwIDcuMjEzIDMuMiA3LjIxMyA3LjIxM3MtMy4yIDcuMjE1LTcuMjEzIDcuMjE1LTcuMjEzLTMuMjAyLTcuMjEzLTcuMjE1IDMuMi03LjIxMyA3LjIxMy03LjIxM3ptLTc1LjMxNi01QzUuNjE2IDc1LjMzNy4xMTggODAuODM1LjExOCA4Ny41NXM1LjQ5NyAxMi4yMTUgMTIuMjEzIDEyLjIxNSAxMi4yMTMtNS40OTkgMTIuMjEzLTEyLjIxNS01LjQ5Ny0xMi4yMTMtMTIuMjEzLTEyLjIxM3ptMCA1YzQuMDEzIDAgNy4yMTMgMy4yIDcuMjEzIDcuMjEzcy0zLjIgNy4yMTUtNy4yMTMgNy4yMTUtNy4yMTMtMy4yMDItNy4yMTMtNy4yMTUgMy4yLTcuMjEzIDcuMjEzLTcuMjEzem0wLTgwLjIzQzUuNjE2LjEwNy4xMTggNS42MDQuMTE4IDEyLjMyczUuNDk3IDEyLjIxMyAxMi4yMTMgMTIuMjEzIDEyLjIxMy01LjQ5NyAxMi4yMTMtMTIuMjEzUzE5LjA0Ny4xMDcgMTIuMzMxLjEwN3ptMCA1YzQuMDEzIDAgNy4yMTMgMy4yIDcuMjEzIDcuMjEzcy0zLjIgNy4yMTMtNy4yMTMgNy4yMTMtNy4yMTMtMy4yLTcuMjEzLTcuMjEzIDMuMi03LjIxMyA3LjIxMy03LjIxM3ptMzcuODQtNWMtNi43MTUgMC0xMi4yMTMgNS40OTctMTIuMjEzIDEyLjIxM3M1LjQ5NyAxMi4yMTMgMTIuMjEzIDEyLjIxMyAxMi4yMTMtNS40OTcgMTIuMjEzLTEyLjIxM1M1Ni44ODYuMTA3IDUwLjE3MS4xMDd6bTAgNWM0LjAxMyAwIDcuMjEzIDMuMiA3LjIxMyA3LjIxM3MtMy4yIDcuMjEzLTcuMjEzIDcuMjEzLTcuMjEzLTMuMi03LjIxMy03LjIxMyAzLjItNy4yMTMgNy4yMTMtNy4yMTN6Ii8+JiN4YTs8L3N2Zz4=;Tk2NjEgLTcuMjEyODksLTcuMjEyODkgMCwtNC4wMTMyMjkgMy4xOTk2NywtNy4yMTI4OTEgNy4yMTI4OSwtNy4yMTI4OTEgeiIvPiYjeGE7ICA8L2c+JiN4YTs8L3N2Zz4=;" parent="1" vertex="1">
          <mxGeometry x="-37.059999999999945" y="-392" width="60" height="60" as="geometry" />
        </mxCell>
        <mxCell id="64lL_U8enU3L0a2776Dr-60" value="LIB V2.0.1" style="image;aspect=fixed;html=1;points=[];align=center;fontSize=12;image=img/lib/azure2/devops/Lab_Services.svg;" parent="1" vertex="1">
          <mxGeometry x="-115.05999999999995" y="-388" width="35.06" height="34" as="geometry" />
        </mxCell>
        <mxCell id="64lL_U8enU3L0a2776Dr-62" style="edgeStyle=orthogonalEdgeStyle;rounded=1;orthogonalLoop=1;jettySize=auto;html=1;curved=0;" parent="1" source="64lL_U8enU3L0a2776Dr-61" edge="1">
          <mxGeometry relative="1" as="geometry">
            <mxPoint x="50" y="-69" as="targetPoint" />
          </mxGeometry>
        </mxCell>
        <mxCell id="64lL_U8enU3L0a2776Dr-61" value="venv" style="image;html=1;image=img/lib/clip_art/general/Empty_Folder_128x128.png;fontFamily=Lucida Console;" parent="1" vertex="1">
          <mxGeometry x="-160" y="-155" width="80" height="80" as="geometry" />
        </mxCell>
        <mxCell id="64lL_U8enU3L0a2776Dr-66" style="edgeStyle=orthogonalEdgeStyle;rounded=1;orthogonalLoop=1;jettySize=auto;html=1;curved=0;" parent="1" source="64lL_U8enU3L0a2776Dr-63" edge="1">
          <mxGeometry relative="1" as="geometry">
            <mxPoint x="-10" y="-392" as="targetPoint" />
          </mxGeometry>
        </mxCell>
        <mxCell id="64lL_U8enU3L0a2776Dr-63" value="venv" style="image;html=1;image=img/lib/clip_art/general/Empty_Folder_128x128.png;fontFamily=Lucida Console;" parent="1" vertex="1">
          <mxGeometry x="-219.99999999999977" y="-480" width="80" height="80" as="geometry" />
        </mxCell>
        <mxCell id="64lL_U8enU3L0a2776Dr-69" value="Корень проекта" style="text;html=1;align=center;verticalAlign=middle;resizable=0;points=[];autosize=1;strokeColor=#d79b00;fillColor=#ffe6cc;" parent="1" vertex="1">
          <mxGeometry x="-460" y="-557" width="110" height="30" as="geometry" />
        </mxCell>
        <mxCell id="64lL_U8enU3L0a2776Dr-70" value="Виртуальное окружение" style="text;html=1;align=center;verticalAlign=middle;resizable=0;points=[];autosize=1;strokeColor=#82b366;fillColor=#d5e8d4;" parent="1" vertex="1">
          <mxGeometry x="160" y="-630" width="160" height="30" as="geometry" />
        </mxCell>
        <mxCell id="64lL_U8enU3L0a2776Dr-71" value="Папка&amp;nbsp;&lt;div&gt;виртуального окружения&lt;/div&gt;" style="text;html=1;align=center;verticalAlign=middle;resizable=0;points=[];autosize=1;strokeColor=#82b366;fillColor=#d5e8d4;" parent="1" vertex="1">
          <mxGeometry x="-390" y="-452" width="160" height="40" as="geometry" />
        </mxCell>
        <mxCell id="64lL_U8enU3L0a2776Dr-72" value="" style="fontColor=#0066CC;verticalAlign=top;verticalLabelPosition=bottom;labelPosition=center;align=center;html=1;outlineConnect=0;fillColor=#CCCCCC;strokeColor=#6881B3;gradientColor=none;gradientDirection=north;strokeWidth=2;shape=mxgraph.networks.pc;fontFamily=Lucida Console;" parent="1" vertex="1">
          <mxGeometry x="620" y="-637.5" width="171.43" height="120" as="geometry" />
        </mxCell>
        <mxCell id="64lL_U8enU3L0a2776Dr-73" value="Python 3.13" style="shape=image;verticalLabelPosition=bottom;verticalAlign=top;imageAspect=0;aspect=fixed;image=data:image/svg+xml,PHN2ZyB4bWxucz0iaHR0cDovL3d3dy53My5vcmcvMjAwMC9zdmciIHZpZXdCb3g9IjAgMCAxMjggMTI4Ij48bGluZWFyR3JhZGllbnQgaWQ9InB5dGhvbi1vcmlnaW5hbC1hIiBncmFkaWVudFVuaXRzPSJ1c2VyU3BhY2VPblVzZSIgeDE9IjcwLjI1MiIgeTE9IjEyMzcuNDc2IiB4Mj0iMTcwLjY1OSIgeTI9IjExNTEuMDg5IiBncmFkaWVudFRyYW5zZm9ybT0ibWF0cml4KC41NjMgMCAwIC0uNTY4IC0yOS4yMTUgNzA3LjgxNykiPjxzdG9wIG9mZnNldD0iMCIgc3RvcC1jb2xvcj0iIzVBOUZENCIvPjxzdG9wIG9mZnNldD0iMSIgc3RvcC1jb2xvcj0iIzMwNjk5OCIvPjwvbGluZWFyR3JhZGllbnQ+PGxpbmVhckdyYWRpZW50IGlkPSJweXRob24tb3JpZ2luYWwtYiIgZ3JhZGllbnRVbml0cz0idXNlclNwYWNlT25Vc2UiIHgxPSIyMDkuNDc0IiB5MT0iMTA5OC44MTEiIHgyPSIxNzMuNjIiIHkyPSIxMTQ5LjUzNyIgZ3JhZGllbnRUcmFuc2Zvcm09Im1hdHJpeCguNTYzIDAgMCAtLjU2OCAtMjkuMjE1IDcwNy44MTcpIj48c3RvcCBvZmZzZXQ9IjAiIHN0b3AtY29sb3I9IiNGRkQ0M0IiLz48c3RvcCBvZmZzZXQ9IjEiIHN0b3AtY29sb3I9IiNGRkU4NzMiLz48L2xpbmVhckdyYWRpZW50PjxwYXRoIGZpbGw9InVybCgjcHl0aG9uLW9yaWdpbmFsLWEpIiBkPSJNNjMuMzkxIDEuOTg4Yy00LjIyMi4wMi04LjI1Mi4zNzktMTEuOCAxLjAwNy0xMC40NSAxLjg0Ni0xMi4zNDYgNS43MS0xMi4zNDYgMTIuODM3djkuNDExaDI0LjY5M3YzLjEzN0gyOS45NzdjLTcuMTc2IDAtMTMuNDYgNC4zMTMtMTUuNDI2IDEyLjUyMS0yLjI2OCA5LjQwNS0yLjM2OCAxNS4yNzUgMCAyNS4wOTYgMS43NTUgNy4zMTEgNS45NDcgMTIuNTE5IDEzLjEyNCAxMi41MTloOC40OTFWNjcuMjM0YzAtOC4xNTEgNy4wNTEtMTUuMzQgMTUuNDI2LTE1LjM0aDI0LjY2NWM2Ljg2NiAwIDEyLjM0Ni01LjY1NCAxMi4zNDYtMTIuNTQ4VjE1LjgzM2MwLTYuNjkzLTUuNjQ2LTExLjcyLTEyLjM0Ni0xMi44MzctNC4yNDQtLjcwNi04LjY0NS0xLjAyNy0xMi44NjYtMS4wMDh6TTUwLjAzNyA5LjU1N2MyLjU1IDAgNC42MzQgMi4xMTcgNC42MzQgNC43MjEgMCAyLjU5My0yLjA4MyA0LjY5LTQuNjM0IDQuNjktMi41NiAwLTQuNjMzLTIuMDk3LTQuNjMzLTQuNjktLjAwMS0yLjYwNCAyLjA3My00LjcyMSA0LjYzMy00LjcyMXoiIHRyYW5zZm9ybT0idHJhbnNsYXRlKDAgMTAuMjYpIi8+PHBhdGggZmlsbD0idXJsKCNweXRob24tb3JpZ2luYWwtYikiIGQ9Ik05MS42ODIgMjguMzh2MTAuOTY2YzAgOC41LTcuMjA4IDE1LjY1NS0xNS40MjYgMTUuNjU1SDUxLjU5MWMtNi43NTYgMC0xMi4zNDYgNS43ODMtMTIuMzQ2IDEyLjU0OXYyMy41MTVjMCA2LjY5MSA1LjgxOCAxMC42MjggMTIuMzQ2IDEyLjU0NyA3LjgxNiAyLjI5NyAxNS4zMTIgMi43MTMgMjQuNjY1IDAgNi4yMTYtMS44MDEgMTIuMzQ2LTUuNDIzIDEyLjM0Ni0xMi41NDd2LTkuNDEySDYzLjkzOHYtMy4xMzhoMzcuMDEyYzcuMTc2IDAgOS44NTItNS4wMDUgMTIuMzQ4LTEyLjUxOSAyLjU3OC03LjczNSAyLjQ2Ny0xNS4xNzQgMC0yNS4wOTYtMS43NzQtNy4xNDUtNS4xNjEtMTIuNTIxLTEyLjM0OC0xMi41MjFoLTkuMjY4ek03Ny44MDkgODcuOTI3YzIuNTYxIDAgNC42MzQgMi4wOTcgNC42MzQgNC42OTIgMCAyLjYwMi0yLjA3NCA0LjcxOS00LjYzNCA0LjcxOS0yLjU1IDAtNC42MzMtMi4xMTctNC42MzMtNC43MTkgMC0yLjU5NSAyLjA4My00LjY5MiA0LjYzMy00LjY5MnoiIHRyYW5zZm9ybT0idHJhbnNsYXRlKDAgMTAuMjYpIi8+PHJhZGlhbEdyYWRpZW50IGlkPSJweXRob24tb3JpZ2luYWwtYyIgY3g9IjE4MjUuNjc4IiBjeT0iNDQ0LjQ1IiByPSIyNi43NDMiIGdyYWRpZW50VHJhbnNmb3JtPSJtYXRyaXgoMCAtLjI0IC0xLjA1NSAwIDUzMi45NzkgNTU3LjU3NikiIGdyYWRpZW50VW5pdHM9InVzZXJTcGFjZU9uVXNlIj48c3RvcCBvZmZzZXQ9IjAiIHN0b3AtY29sb3I9IiNCOEI4QjgiIHN0b3Atb3BhY2l0eT0iLjQ5OCIvPjxzdG9wIG9mZnNldD0iMSIgc3RvcC1jb2xvcj0iIzdGN0Y3RiIgc3RvcC1vcGFjaXR5PSIwIi8+PC9yYWRpYWxHcmFkaWVudD48cGF0aCBvcGFjaXR5PSIuNDQ0IiBmaWxsPSJ1cmwoI3B5dGhvbi1vcmlnaW5hbC1jKSIgZD0iTTk3LjMwOSAxMTkuNTk3YzAgMy41NDMtMTQuODE2IDYuNDE2LTMzLjA5MSA2LjQxNi0xOC4yNzYgMC0zMy4wOTItMi44NzMtMzMuMDkyLTYuNDE2IDAtMy41NDQgMTQuODE1LTYuNDE3IDMzLjA5Mi02LjQxNyAxOC4yNzUgMCAzMy4wOTEgMi44NzIgMzMuMDkxIDYuNDE3eiIvPjwvc3ZnPg==;fontFamily=Lucida Console;" parent="1" vertex="1">
          <mxGeometry x="700" y="-324.5" width="42" height="42" as="geometry" />
        </mxCell>
        <mxCell id="64lL_U8enU3L0a2776Dr-74" value="Python 3.11" style="shape=image;verticalLabelPosition=bottom;verticalAlign=top;imageAspect=0;aspect=fixed;image=data:image/svg+xml,PHN2ZyB4bWxucz0iaHR0cDovL3d3dy53My5vcmcvMjAwMC9zdmciIHZpZXdCb3g9IjAgMCAxMjggMTI4Ij48bGluZWFyR3JhZGllbnQgaWQ9InB5dGhvbi1vcmlnaW5hbC1hIiBncmFkaWVudFVuaXRzPSJ1c2VyU3BhY2VPblVzZSIgeDE9IjcwLjI1MiIgeTE9IjEyMzcuNDc2IiB4Mj0iMTcwLjY1OSIgeTI9IjExNTEuMDg5IiBncmFkaWVudFRyYW5zZm9ybT0ibWF0cml4KC41NjMgMCAwIC0uNTY4IC0yOS4yMTUgNzA3LjgxNykiPjxzdG9wIG9mZnNldD0iMCIgc3RvcC1jb2xvcj0iIzVBOUZENCIvPjxzdG9wIG9mZnNldD0iMSIgc3RvcC1jb2xvcj0iIzMwNjk5OCIvPjwvbGluZWFyR3JhZGllbnQ+PGxpbmVhckdyYWRpZW50IGlkPSJweXRob24tb3JpZ2luYWwtYiIgZ3JhZGllbnRVbml0cz0idXNlclNwYWNlT25Vc2UiIHgxPSIyMDkuNDc0IiB5MT0iMTA5OC44MTEiIHgyPSIxNzMuNjIiIHkyPSIxMTQ5LjUzNyIgZ3JhZGllbnRUcmFuc2Zvcm09Im1hdHJpeCguNTYzIDAgMCAtLjU2OCAtMjkuMjE1IDcwNy44MTcpIj48c3RvcCBvZmZzZXQ9IjAiIHN0b3AtY29sb3I9IiNGRkQ0M0IiLz48c3RvcCBvZmZzZXQ9IjEiIHN0b3AtY29sb3I9IiNGRkU4NzMiLz48L2xpbmVhckdyYWRpZW50PjxwYXRoIGZpbGw9InVybCgjcHl0aG9uLW9yaWdpbmFsLWEpIiBkPSJNNjMuMzkxIDEuOTg4Yy00LjIyMi4wMi04LjI1Mi4zNzktMTEuOCAxLjAwNy0xMC40NSAxLjg0Ni0xMi4zNDYgNS43MS0xMi4zNDYgMTIuODM3djkuNDExaDI0LjY5M3YzLjEzN0gyOS45NzdjLTcuMTc2IDAtMTMuNDYgNC4zMTMtMTUuNDI2IDEyLjUyMS0yLjI2OCA5LjQwNS0yLjM2OCAxNS4yNzUgMCAyNS4wOTYgMS43NTUgNy4zMTEgNS45NDcgMTIuNTE5IDEzLjEyNCAxMi41MTloOC40OTFWNjcuMjM0YzAtOC4xNTEgNy4wNTEtMTUuMzQgMTUuNDI2LTE1LjM0aDI0LjY2NWM2Ljg2NiAwIDEyLjM0Ni01LjY1NCAxMi4zNDYtMTIuNTQ4VjE1LjgzM2MwLTYuNjkzLTUuNjQ2LTExLjcyLTEyLjM0Ni0xMi44MzctNC4yNDQtLjcwNi04LjY0NS0xLjAyNy0xMi44NjYtMS4wMDh6TTUwLjAzNyA5LjU1N2MyLjU1IDAgNC42MzQgMi4xMTcgNC42MzQgNC43MjEgMCAyLjU5My0yLjA4MyA0LjY5LTQuNjM0IDQuNjktMi41NiAwLTQuNjMzLTIuMDk3LTQuNjMzLTQuNjktLjAwMS0yLjYwNCAyLjA3My00LjcyMSA0LjYzMy00LjcyMXoiIHRyYW5zZm9ybT0idHJhbnNsYXRlKDAgMTAuMjYpIi8+PHBhdGggZmlsbD0idXJsKCNweXRob24tb3JpZ2luYWwtYikiIGQ9Ik05MS42ODIgMjguMzh2MTAuOTY2YzAgOC41LTcuMjA4IDE1LjY1NS0xNS40MjYgMTUuNjU1SDUxLjU5MWMtNi43NTYgMC0xMi4zNDYgNS43ODMtMTIuMzQ2IDEyLjU0OXYyMy41MTVjMCA2LjY5MSA1LjgxOCAxMC42MjggMTIuMzQ2IDEyLjU0NyA3LjgxNiAyLjI5NyAxNS4zMTIgMi43MTMgMjQuNjY1IDAgNi4yMTYtMS44MDEgMTIuMzQ2LTUuNDIzIDEyLjM0Ni0xMi41NDd2LTkuNDEySDYzLjkzOHYtMy4xMzhoMzcuMDEyYzcuMTc2IDAgOS44NTItNS4wMDUgMTIuMzQ4LTEyLjUxOSAyLjU3OC03LjczNSAyLjQ2Ny0xNS4xNzQgMC0yNS4wOTYtMS43NzQtNy4xNDUtNS4xNjEtMTIuNTIxLTEyLjM0OC0xMi41MjFoLTkuMjY4ek03Ny44MDkgODcuOTI3YzIuNTYxIDAgNC42MzQgMi4wOTcgNC42MzQgNC42OTIgMCAyLjYwMi0yLjA3NCA0LjcxOS00LjYzNCA0LjcxOS0yLjU1IDAtNC42MzMtMi4xMTctNC42MzMtNC43MTkgMC0yLjU5NSAyLjA4My00LjY5MiA0LjYzMy00LjY5MnoiIHRyYW5zZm9ybT0idHJhbnNsYXRlKDAgMTAuMjYpIi8+PHJhZGlhbEdyYWRpZW50IGlkPSJweXRob24tb3JpZ2luYWwtYyIgY3g9IjE4MjUuNjc4IiBjeT0iNDQ0LjQ1IiByPSIyNi43NDMiIGdyYWRpZW50VHJhbnNmb3JtPSJtYXRyaXgoMCAtLjI0IC0xLjA1NSAwIDUzMi45NzkgNTU3LjU3NikiIGdyYWRpZW50VW5pdHM9InVzZXJTcGFjZU9uVXNlIj48c3RvcCBvZmZzZXQ9IjAiIHN0b3AtY29sb3I9IiNCOEI4QjgiIHN0b3Atb3BhY2l0eT0iLjQ5OCIvPjxzdG9wIG9mZnNldD0iMSIgc3RvcC1jb2xvcj0iIzdGN0Y3RiIgc3RvcC1vcGFjaXR5PSIwIi8+PC9yYWRpYWxHcmFkaWVudD48cGF0aCBvcGFjaXR5PSIuNDQ0IiBmaWxsPSJ1cmwoI3B5dGhvbi1vcmlnaW5hbC1jKSIgZD0iTTk3LjMwOSAxMTkuNTk3YzAgMy41NDMtMTQuODE2IDYuNDE2LTMzLjA5MSA2LjQxNi0xOC4yNzYgMC0zMy4wOTItMi44NzMtMzMuMDkyLTYuNDE2IDAtMy41NDQgMTQuODE1LTYuNDE3IDMzLjA5Mi02LjQxNyAxOC4yNzUgMCAzMy4wOTEgMi44NzIgMzMuMDkxIDYuNDE3eiIvPjwvc3ZnPg==;fontFamily=Lucida Console;" parent="1" vertex="1">
          <mxGeometry x="700" y="-486.5" width="42" height="42" as="geometry" />
        </mxCell>
        <mxCell id="64lL_U8enU3L0a2776Dr-75" value="Python 3.12" style="shape=image;verticalLabelPosition=bottom;verticalAlign=top;imageAspect=0;aspect=fixed;image=data:image/svg+xml,PHN2ZyB4bWxucz0iaHR0cDovL3d3dy53My5vcmcvMjAwMC9zdmciIHZpZXdCb3g9IjAgMCAxMjggMTI4Ij48bGluZWFyR3JhZGllbnQgaWQ9InB5dGhvbi1vcmlnaW5hbC1hIiBncmFkaWVudFVuaXRzPSJ1c2VyU3BhY2VPblVzZSIgeDE9IjcwLjI1MiIgeTE9IjEyMzcuNDc2IiB4Mj0iMTcwLjY1OSIgeTI9IjExNTEuMDg5IiBncmFkaWVudFRyYW5zZm9ybT0ibWF0cml4KC41NjMgMCAwIC0uNTY4IC0yOS4yMTUgNzA3LjgxNykiPjxzdG9wIG9mZnNldD0iMCIgc3RvcC1jb2xvcj0iIzVBOUZENCIvPjxzdG9wIG9mZnNldD0iMSIgc3RvcC1jb2xvcj0iIzMwNjk5OCIvPjwvbGluZWFyR3JhZGllbnQ+PGxpbmVhckdyYWRpZW50IGlkPSJweXRob24tb3JpZ2luYWwtYiIgZ3JhZGllbnRVbml0cz0idXNlclNwYWNlT25Vc2UiIHgxPSIyMDkuNDc0IiB5MT0iMTA5OC44MTEiIHgyPSIxNzMuNjIiIHkyPSIxMTQ5LjUzNyIgZ3JhZGllbnRUcmFuc2Zvcm09Im1hdHJpeCguNTYzIDAgMCAtLjU2OCAtMjkuMjE1IDcwNy44MTcpIj48c3RvcCBvZmZzZXQ9IjAiIHN0b3AtY29sb3I9IiNGRkQ0M0IiLz48c3RvcCBvZmZzZXQ9IjEiIHN0b3AtY29sb3I9IiNGRkU4NzMiLz48L2xpbmVhckdyYWRpZW50PjxwYXRoIGZpbGw9InVybCgjcHl0aG9uLW9yaWdpbmFsLWEpIiBkPSJNNjMuMzkxIDEuOTg4Yy00LjIyMi4wMi04LjI1Mi4zNzktMTEuOCAxLjAwNy0xMC40NSAxLjg0Ni0xMi4zNDYgNS43MS0xMi4zNDYgMTIuODM3djkuNDExaDI0LjY5M3YzLjEzN0gyOS45NzdjLTcuMTc2IDAtMTMuNDYgNC4zMTMtMTUuNDI2IDEyLjUyMS0yLjI2OCA5LjQwNS0yLjM2OCAxNS4yNzUgMCAyNS4wOTYgMS43NTUgNy4zMTEgNS45NDcgMTIuNTE5IDEzLjEyNCAxMi41MTloOC40OTFWNjcuMjM0YzAtOC4xNTEgNy4wNTEtMTUuMzQgMTUuNDI2LTE1LjM0aDI0LjY2NWM2Ljg2NiAwIDEyLjM0Ni01LjY1NCAxMi4zNDYtMTIuNTQ4VjE1LjgzM2MwLTYuNjkzLTUuNjQ2LTExLjcyLTEyLjM0Ni0xMi44MzctNC4yNDQtLjcwNi04LjY0NS0xLjAyNy0xMi44NjYtMS4wMDh6TTUwLjAzNyA5LjU1N2MyLjU1IDAgNC42MzQgMi4xMTcgNC42MzQgNC43MjEgMCAyLjU5My0yLjA4MyA0LjY5LTQuNjM0IDQuNjktMi41NiAwLTQuNjMzLTIuMDk3LTQuNjMzLTQuNjktLjAwMS0yLjYwNCAyLjA3My00LjcyMSA0LjYzMy00LjcyMXoiIHRyYW5zZm9ybT0idHJhbnNsYXRlKDAgMTAuMjYpIi8+PHBhdGggZmlsbD0idXJsKCNweXRob24tb3JpZ2luYWwtYikiIGQ9Ik05MS42ODIgMjguMzh2MTAuOTY2YzAgOC41LTcuMjA4IDE1LjY1NS0xNS40MjYgMTUuNjU1SDUxLjU5MWMtNi43NTYgMC0xMi4zNDYgNS43ODMtMTIuMzQ2IDEyLjU0OXYyMy41MTVjMCA2LjY5MSA1LjgxOCAxMC42MjggMTIuMzQ2IDEyLjU0NyA3LjgxNiAyLjI5NyAxNS4zMTIgMi43MTMgMjQuNjY1IDAgNi4yMTYtMS44MDEgMTIuMzQ2LTUuNDIzIDEyLjM0Ni0xMi41NDd2LTkuNDEySDYzLjkzOHYtMy4xMzhoMzcuMDEyYzcuMTc2IDAgOS44NTItNS4wMDUgMTIuMzQ4LTEyLjUxOSAyLjU3OC03LjczNSAyLjQ2Ny0xNS4xNzQgMC0yNS4wOTYtMS43NzQtNy4xNDUtNS4xNjEtMTIuNTIxLTEyLjM0OC0xMi41MjFoLTkuMjY4ek03Ny44MDkgODcuOTI3YzIuNTYxIDAgNC42MzQgMi4wOTcgNC42MzQgNC42OTIgMCAyLjYwMi0yLjA3NCA0LjcxOS00LjYzNCA0LjcxOS0yLjU1IDAtNC42MzMtMi4xMTctNC42MzMtNC43MTkgMC0yLjU5NSAyLjA4My00LjY5MiA0LjYzMy00LjY5MnoiIHRyYW5zZm9ybT0idHJhbnNsYXRlKDAgMTAuMjYpIi8+PHJhZGlhbEdyYWRpZW50IGlkPSJweXRob24tb3JpZ2luYWwtYyIgY3g9IjE4MjUuNjc4IiBjeT0iNDQ0LjQ1IiByPSIyNi43NDMiIGdyYWRpZW50VHJhbnNmb3JtPSJtYXRyaXgoMCAtLjI0IC0xLjA1NSAwIDUzMi45NzkgNTU3LjU3NikiIGdyYWRpZW50VW5pdHM9InVzZXJTcGFjZU9uVXNlIj48c3RvcCBvZmZzZXQ9IjAiIHN0b3AtY29sb3I9IiNCOEI4QjgiIHN0b3Atb3BhY2l0eT0iLjQ5OCIvPjxzdG9wIG9mZnNldD0iMSIgc3RvcC1jb2xvcj0iIzdGN0Y3RiIgc3RvcC1vcGFjaXR5PSIwIi8+PC9yYWRpYWxHcmFkaWVudD48cGF0aCBvcGFjaXR5PSIuNDQ0IiBmaWxsPSJ1cmwoI3B5dGhvbi1vcmlnaW5hbC1jKSIgZD0iTTk3LjMwOSAxMTkuNTk3YzAgMy41NDMtMTQuODE2IDYuNDE2LTMzLjA5MSA2LjQxNi0xOC4yNzYgMC0zMy4wOTItMi44NzMtMzMuMDkyLTYuNDE2IDAtMy41NDQgMTQuODE1LTYuNDE3IDMzLjA5Mi02LjQxNyAxOC4yNzUgMCAzMy4wOTEgMi44NzIgMzMuMDkxIDYuNDE3eiIvPjwvc3ZnPg==;fontFamily=Lucida Console;" parent="1" vertex="1">
          <mxGeometry x="700" y="-406.5" width="42" height="42" as="geometry" />
        </mxCell>
        <mxCell id="JOMjis5h_G8gP_m1ammN-1" value="Console" style="image;aspect=fixed;html=1;points=[];align=center;fontSize=12;image=img/lib/azure2/general/Dev_Console.svg;fontFamily=Lucida Console;" parent="1" vertex="1">
          <mxGeometry x="30" y="-564" width="60" height="48" as="geometry" />
        </mxCell>
        <mxCell id="JOMjis5h_G8gP_m1ammN-5" style="edgeStyle=orthogonalEdgeStyle;rounded=1;orthogonalLoop=1;jettySize=auto;html=1;fillColor=#dae8fc;strokeColor=#6c8ebf;curved=0;flowAnimation=1;" parent="1" source="JOMjis5h_G8gP_m1ammN-3" target="64lL_U8enU3L0a2776Dr-58" edge="1">
          <mxGeometry relative="1" as="geometry">
            <Array as="points">
              <mxPoint x="110" y="-440" />
              <mxPoint x="110" y="-440" />
            </Array>
          </mxGeometry>
        </mxCell>
        <mxCell id="JOMjis5h_G8gP_m1ammN-3" value="python main.py" style="text;html=1;align=center;verticalAlign=middle;resizable=0;points=[];autosize=1;strokeColor=#666666;fillColor=#f5f5f5;fontColor=#333333;fontFamily=Lucida Console;" parent="1" vertex="1">
          <mxGeometry y="-594" width="120" height="30" as="geometry" />
        </mxCell>
        <mxCell id="JOMjis5h_G8gP_m1ammN-4" style="edgeStyle=orthogonalEdgeStyle;rounded=1;orthogonalLoop=1;jettySize=auto;html=1;entryX=0;entryY=0.5;entryDx=0;entryDy=0;entryPerimeter=0;fillColor=#dae8fc;strokeColor=#6c8ebf;curved=0;flowAnimation=1;" parent="1" source="JOMjis5h_G8gP_m1ammN-3" target="64lL_U8enU3L0a2776Dr-12" edge="1">
          <mxGeometry relative="1" as="geometry" />
        </mxCell>
      </root>
    </mxGraphModel>
  </diagram>
</mxfile>
